# Blender v3.0.1 OBJ File: ''
# www.blender.org
mtllib fatheadmouth.mtl
o mutant.004
v -1.127354 -0.196701 -21.382940
v -0.914614 0.703262 -21.471743
v -0.422104 0.771652 -21.625492
v -0.541530 -0.115204 -21.635111
v -1.778052 -0.149399 -21.101725
v -2.403339 0.018051 -20.852779
v -2.104593 0.726639 -20.911289
v -1.445885 0.638580 -21.190556
v 0.000017 -0.117874 -21.607462
v 0.000017 0.716431 -21.627033
v -2.508204 0.747879 -20.808044
v -2.796643 0.121246 -20.676754
v -2.400093 -0.646606 -20.705196
v -2.816228 -0.707703 -20.307903
v -1.819380 -0.770462 -21.030970
v -1.242203 -0.873016 -21.249971
v -0.590041 -1.036484 -21.511051
v 0.000017 -0.840805 -21.454571
v 1.195153 -0.201309 -21.383263
v 0.541564 -0.115204 -21.635111
v 0.422138 0.771652 -21.625492
v 0.914648 0.703262 -21.471743
v 1.786118 -0.153015 -21.071424
v 1.445919 0.638580 -21.190556
v 2.104626 0.726639 -20.911289
v 2.403373 0.018051 -20.852779
v 2.508237 0.747879 -20.808044
v 2.796677 0.121246 -20.676754
v 2.816262 -0.707703 -20.307903
v 2.412021 -0.663742 -20.672543
v 1.825521 -0.769745 -20.962244
v 1.251701 -0.862396 -21.215485
v 0.590012 -0.976318 -21.508387
v -3.138226 -0.681458 -19.966188
v -3.261112 -0.079758 -20.252674
v -3.092437 0.642975 -20.409632
v 3.261081 -0.079742 -20.252672
v 3.138260 -0.681458 -19.966188
v 3.092471 0.642975 -20.409632
v -3.188060 -0.263489 -19.464314
v -3.285007 0.241272 -19.712727
v -3.077246 0.646301 -19.869694
v 3.284942 0.241302 -19.712727
v 3.188094 -0.263489 -19.464314
v 3.077279 0.646301 -19.869694
vt 0.132500 0.806100
vt 0.132500 0.820800
vt 0.118900 0.822500
vt 0.119300 0.806800
vt 0.146200 0.804700
vt 0.160400 0.804000
vt 0.160400 0.814900
vt 0.146800 0.819600
vt 0.107900 0.807000
vt 0.107900 0.819800
vt 0.168900 0.812900
vt 0.170800 0.803500
vt 0.161000 0.797000
vt 0.168000 0.796500
vt 0.146300 0.796400
vt 0.132500 0.798100
vt 0.119100 0.796700
vt 0.107900 0.800400
vt 0.083400 0.806100
vt 0.096500 0.806900
vt 0.097000 0.822500
vt 0.083400 0.820800
vt 0.069700 0.804700
vt 0.069100 0.819600
vt 0.055400 0.814900
vt 0.055400 0.804000
vt 0.047200 0.813200
vt 0.045700 0.803700
vt 0.045600 0.796800
vt 0.054800 0.797000
vt 0.069500 0.796400
vt 0.083400 0.798100
vt 0.096700 0.796700
vt 0.175400 0.796500
vt 0.178900 0.803500
vt 0.176500 0.812900
vt 0.036200 0.803700
vt 0.037000 0.796800
vt 0.039900 0.813200
vt 0.184600 0.796500
vt 0.187200 0.803500
vt 0.184300 0.812900
vt 0.027400 0.803700
vt 0.028800 0.796800
vt 0.029700 0.813200
vn -0.3941 -0.0268 -0.9187
vn -0.3912 0.0017 -0.9203
vn -0.1856 0.0102 -0.9826
vn -0.1315 -0.0732 -0.9886
vn -0.3819 -0.0041 -0.9242
vn -0.4452 -0.1021 -0.8896
vn -0.3434 0.0557 -0.9376
vn -0.4136 0.0487 -0.9092
vn 0.0000 -0.0726 -0.9974
vn -0.0000 -0.0235 -0.9997
vn -0.5065 0.0309 -0.8617
vn -0.5796 -0.2114 -0.7870
vn -0.5851 -0.1785 -0.7911
vn -0.6194 -0.2677 -0.7380
vn -0.4268 -0.1195 -0.8964
vn -0.3885 -0.1031 -0.9157
vn -0.2179 -0.1222 -0.9683
vn 0.0069 -0.1727 -0.9849
vn 0.4076 -0.0391 -0.9123
vn 0.1275 -0.0761 -0.9889
vn 0.1802 0.0159 -0.9835
vn 0.3944 0.0325 -0.9184
vn 0.4058 -0.0383 -0.9132
vn 0.4388 0.0502 -0.8972
vn 0.3330 0.0375 -0.9422
vn 0.4242 -0.1237 -0.8971
vn 0.4323 0.0444 -0.9006
vn 0.5545 -0.1359 -0.8210
vn 0.5816 -0.3232 -0.7466
vn 0.5482 -0.2073 -0.8103
vn 0.4181 -0.1672 -0.8929
vn 0.4384 -0.1689 -0.8828
vn 0.2271 -0.1550 -0.9615
vn -0.8081 -0.3306 -0.4874
vn -0.8887 -0.0902 -0.4495
vn -0.8799 0.1676 -0.4445
vn 0.8927 -0.0823 -0.4430
vn 0.9548 -0.2595 -0.1452
vn 0.8152 0.1178 -0.5671
vn -0.9840 -0.1706 0.0514
vn -0.9890 0.1403 -0.0458
vn -0.8861 0.4631 0.0221
vn 0.9991 -0.0247 -0.0344
vn 0.9849 -0.1682 0.0423
vn 0.9519 0.2912 -0.0952
usemtl Material.0012f3
s 1
f 1/1/1 2/2/2 3/3/3
f 3/3/3 4/4/4 1/1/1
f 5/5/5 6/6/6 7/7/7
f 7/7/7 8/8/8 5/5/5
f 1/1/1 5/5/5 8/8/8
f 8/8/8 2/2/2 1/1/1
f 9/9/9 4/4/4 3/3/3
f 3/3/3 10/10/10 9/9/9
f 11/11/11 7/7/7 6/6/6
f 6/6/6 12/12/12 11/11/11
f 6/6/6 13/13/13 14/14/14
f 14/14/14 12/12/12 6/6/6
f 15/15/15 13/13/13 6/6/6
f 6/6/6 5/5/5 15/15/15
f 16/16/16 15/15/15 5/5/5
f 5/5/5 1/1/1 16/16/16
f 17/17/17 16/16/16 1/1/1
f 1/1/1 4/4/4 17/17/17
f 18/18/18 17/17/17 4/4/4
f 4/4/4 9/9/9 18/18/18
f 19/19/19 20/20/20 21/21/21
f 21/21/21 22/22/22 19/19/19
f 23/23/23 24/24/24 25/25/25
f 25/25/25 26/26/26 23/23/23
f 19/19/19 22/22/22 24/24/24
f 24/24/24 23/23/23 19/19/19
f 9/9/9 10/10/10 21/21/21
f 21/21/21 20/20/20 9/9/9
f 27/27/27 28/28/28 26/26/26
f 26/26/26 25/25/25 27/27/27
f 26/26/26 28/28/28 29/29/29
f 29/29/29 30/30/30 26/26/26
f 31/31/31 23/23/23 26/26/26
f 26/26/26 30/30/30 31/31/31
f 32/32/32 19/19/19 23/23/23
f 23/23/23 31/31/31 32/32/32
f 33/33/33 20/20/20 19/19/19
f 19/19/19 32/32/32 33/33/33
f 18/18/18 9/9/9 20/20/20
f 20/20/20 33/33/33 18/18/18
f 34/34/34 35/35/35 12/12/12
f 12/12/12 14/14/14 34/34/34
f 35/35/35 36/36/36 11/11/11
f 11/11/11 12/12/12 35/35/35
f 37/37/37 38/38/38 29/29/29
f 29/29/29 28/28/28 37/37/37
f 39/39/39 37/37/37 28/28/28
f 28/28/28 27/27/27 39/39/39
f 40/40/40 41/41/41 35/35/35
f 35/35/35 34/34/34 40/40/40
f 41/41/41 42/42/42 36/36/36
f 36/36/36 35/35/35 41/41/41
f 43/43/43 44/44/44 38/38/38
f 38/38/38 37/37/37 43/43/43
f 45/45/45 43/43/43 37/37/37
f 37/37/37 39/39/39 45/45/45
o mutant.005
v -1.971072 -1.416245 -19.322178
v -2.224872 -1.197495 -18.566418
v -2.211900 -0.605286 -18.819653
v -1.984890 -0.682861 -19.671856
v -1.415250 -1.519638 -19.786350
v -1.453132 -0.904861 -20.184532
v -0.898814 -0.903290 -20.426208
v -0.832826 -1.547546 -20.082825
v -0.421012 -1.012131 -20.568146
v 0.000014 -0.921524 -20.595501
v 0.000014 -1.547165 -20.271950
v -0.373542 -1.569839 -20.246853
v 0.000014 -2.052048 -19.645630
v -0.276158 -2.087585 -19.620155
v -0.708088 -2.072556 -19.523052
v -1.220576 -2.038620 -19.235977
v -1.825936 -1.876450 -18.899178
v -2.092239 -1.744965 -18.486984
v 1.971100 -1.416245 -19.322178
v 1.984919 -0.716202 -19.671856
v 2.211929 -0.605286 -18.819653
v 2.224900 -1.197495 -18.566418
v 1.415278 -1.519638 -19.786350
v 1.453161 -0.954712 -20.184532
v 0.832854 -1.547546 -20.082825
v 0.898842 -0.929138 -20.426208
v 0.421040 -1.012131 -20.568146
v 0.373570 -1.569839 -20.246853
v 0.276186 -2.087585 -19.620155
v 0.708116 -2.072556 -19.523052
v 1.220604 -2.038620 -19.235977
v 1.825964 -1.876450 -18.899178
v 2.092266 -1.744965 -18.486984
v -2.520127 -1.404114 -18.023472
v -2.465230 -1.029602 -18.102901
v -2.450848 -0.584717 -18.247944
v 2.465258 -1.029602 -18.102901
v 2.520154 -1.404114 -18.023472
v 2.450877 -0.584717 -18.247944
v -2.520126 -1.164597 -17.360584
v -2.418418 -0.790100 -17.440109
v -2.450848 -0.345306 -17.585148
v 2.418446 -0.790100 -17.440109
v 2.520154 -1.164597 -17.360584
v 2.450877 -0.345306 -17.585148
vt 0.158300 0.776300
vt 0.169300 0.776600
vt 0.169900 0.786600
vt 0.160700 0.790200
vt 0.144100 0.777400
vt 0.146300 0.793200
vt 0.132500 0.792000
vt 0.130100 0.778800
vt 0.118800 0.790500
vt 0.107600 0.792600
vt 0.107900 0.780400
vt 0.117800 0.780300
vt 0.107900 0.764700
vt 0.114600 0.762700
vt 0.126500 0.763200
vt 0.140300 0.761100
vt 0.155800 0.761600
vt 0.167500 0.764300
vt 0.057600 0.776400
vt 0.055200 0.785500
vt 0.045000 0.786600
vt 0.046400 0.776700
vt 0.071800 0.777400
vt 0.069500 0.788500
vt 0.085800 0.778800
vt 0.083400 0.792000
vt 0.096400 0.790500
vt 0.098000 0.780300
vt 0.101200 0.762700
vt 0.089400 0.763200
vt 0.075500 0.761200
vt 0.060100 0.761600
vt 0.046500 0.764300
vt 0.179300 0.766600
vt 0.181000 0.776600
vt 0.182300 0.786600
vt 0.034600 0.776700
vt 0.035400 0.766700
vt 0.031500 0.786600
vt 0.189200 0.766600
vt 0.191900 0.776600
vt 0.195300 0.786600
vt 0.024000 0.776700
vt 0.026700 0.766700
vt 0.020600 0.786600
vn -0.8090 -0.3973 -0.4332
vn -0.9135 -0.1695 -0.3698
vn -0.9425 -0.1237 -0.3105
vn -0.8112 -0.2963 -0.5042
vn -0.5255 -0.5784 -0.6239
vn -0.5196 -0.4702 -0.7134
vn -0.3401 -0.4755 -0.8113
vn -0.3196 -0.6214 -0.7154
vn -0.1276 -0.4905 -0.8621
vn 0.0000 -0.4594 -0.8883
vn 0.0000 -0.5964 -0.8027
vn -0.1791 -0.6461 -0.7419
vn -0.0000 -0.7739 -0.6332
vn -0.1549 -0.7610 -0.6300
vn -0.3065 -0.7347 -0.6052
vn -0.4680 -0.7059 -0.5317
vn -0.6177 -0.6289 -0.4723
vn -0.8634 -0.3503 -0.3630
vn 0.8085 -0.4018 -0.4301
vn 0.8137 -0.3082 -0.4928
vn 0.9487 -0.1273 -0.2895
vn 0.9288 -0.1761 -0.3262
vn 0.5217 -0.5923 -0.6140
vn 0.5123 -0.4954 -0.7015
vn 0.3122 -0.6338 -0.7077
vn 0.3241 -0.4876 -0.8107
vn 0.1178 -0.4905 -0.8635
vn 0.1731 -0.6498 -0.7402
vn 0.1549 -0.7610 -0.6300
vn 0.3065 -0.7347 -0.6052
vn 0.4680 -0.7059 -0.5317
vn 0.6177 -0.6289 -0.4723
vn 0.8758 -0.2924 -0.3840
vn -0.9232 -0.0662 -0.3786
vn -0.9768 0.0294 -0.2121
vn -0.9955 -0.0343 -0.0885
vn 0.9741 -0.0494 -0.2207
vn 0.9572 0.1289 -0.2590
vn 0.9598 -0.0762 -0.2703
vn -0.9797 0.1971 -0.0366
vn -0.9973 0.0710 0.0197
vn -0.9976 -0.0651 0.0235
vn 0.9942 0.1068 0.0099
vn 0.9659 0.2436 -0.0880
vn 0.9992 -0.0078 0.0381
usemtl Material.001320
s 1
f 46/46/46 47/47/47 48/48/48
f 48/48/48 49/49/49 46/46/46
f 50/50/50 46/46/46 49/49/49
f 49/49/49 51/51/51 50/50/50
f 51/51/51 52/52/52 53/53/53
f 53/53/53 50/50/50 51/51/51
f 54/54/54 55/55/55 56/56/56
f 56/56/56 57/57/57 54/54/54
f 57/57/57 53/53/53 52/52/52
f 52/52/52 54/54/54 57/57/57
f 57/57/57 56/56/56 58/58/58
f 58/58/58 59/59/59 57/57/57
f 53/53/53 57/57/57 59/59/59
f 59/59/59 60/60/60 53/53/53
f 50/50/50 53/53/53 60/60/60
f 60/60/60 61/61/61 50/50/50
f 46/46/46 50/50/50 61/61/61
f 61/61/61 62/62/62 46/46/46
f 63/63/63 47/47/47 46/46/46
f 46/46/46 62/62/62 63/63/63
f 64/64/64 65/65/65 66/66/66
f 66/66/66 67/67/67 64/64/64
f 68/68/68 69/69/69 65/65/65
f 65/65/65 64/64/64 68/68/68
f 69/69/69 68/68/68 70/70/70
f 70/70/70 71/71/71 69/69/69
f 72/72/72 73/73/73 56/56/56
f 56/56/56 55/55/55 72/72/72
f 73/73/73 72/72/72 71/71/71
f 71/71/71 70/70/70 73/73/73
f 73/73/73 74/74/74 58/58/58
f 58/58/58 56/56/56 73/73/73
f 70/70/70 75/75/75 74/74/74
f 74/74/74 73/73/73 70/70/70
f 68/68/68 76/76/76 75/75/75
f 75/75/75 70/70/70 68/68/68
f 64/64/64 77/77/77 76/76/76
f 76/76/76 68/68/68 64/64/64
f 78/78/78 77/77/77 64/64/64
f 64/64/64 67/67/67 78/78/78
f 79/79/79 80/80/80 47/47/47
f 47/47/47 63/63/63 79/79/79
f 80/80/80 81/81/81 48/48/48
f 48/48/48 47/47/47 80/80/80
f 82/82/82 83/83/83 78/78/78
f 78/78/78 67/67/67 82/82/82
f 84/84/84 82/82/82 67/67/67
f 67/67/67 66/66/66 84/84/84
f 85/85/85 86/86/86 80/80/80
f 80/80/80 79/79/79 85/85/85
f 86/86/86 87/87/87 81/81/81
f 81/81/81 80/80/80 86/86/86
f 88/88/88 89/89/89 83/83/83
f 83/83/83 82/82/82 88/88/88
f 90/90/90 88/88/88 82/82/82
f 82/82/82 84/84/84 90/90/90
o mutant.006
v 2.177337 0.592209 -17.579414
v 1.962453 0.499527 -15.433391
v 1.969033 -0.130554 -17.332195
v -1.968910 -0.168045 -17.335201
v -1.927738 0.451309 -15.442416
v -2.186614 0.550201 -17.585148
v 0.979589 -0.160721 -20.492287
v 1.095773 0.717896 -19.324429
v 1.997327 0.207840 -19.171680
v -2.019576 0.180878 -19.168858
v -1.128361 0.703796 -19.324993
v -0.983037 -0.170593 -20.485802
v 1.943372 1.939331 -15.130053
v -0.001207 0.562988 -19.286358
v 0.042691 1.916306 -15.133814
v -1.932719 1.892227 -15.137571
v -1.856768 -0.393188 -19.018272
v 1.841005 -0.368835 -19.022408
v -0.980312 -0.612671 -20.509769
v -0.061932 -0.149918 -17.333790
v -1.968910 -0.168045 -17.335201
v -1.856768 -0.393188 -19.018272
v 0.001143 -0.645950 -20.707920
v 0.981281 -0.602142 -20.515503
v 1.841005 -0.368835 -19.022408
v 1.969033 -0.130554 -17.332195
v -0.000173 -0.286682 -20.665623
vt 0.925000 0.659600
vt 0.917400 0.631400
vt 0.917400 0.666500
vt 0.982300 0.665700
vt 0.982300 0.631200
vt 0.974200 0.657800
vt 0.933000 0.688900
vt 0.933900 0.677300
vt 0.925200 0.676800
vt 0.972500 0.675100
vt 0.964900 0.676700
vt 0.964000 0.688700
vt 0.930300 0.631200
vt 0.949200 0.677100
vt 0.950600 0.631200
vt 0.971800 0.631200
vt 0.980000 0.689300
vt 0.918900 0.689700
vt 0.966300 0.695100
vt 0.950900 0.719800
vt 0.982300 0.719800
vt 0.981900 0.709400
vt 0.949300 0.696400
vt 0.929900 0.695300
vt 0.917500 0.709500
vt 0.917400 0.719800
vt 0.949300 0.690500
vn 0.9423 0.3060 -0.1360
vn 0.9914 -0.0892 0.0954
vn 0.9632 -0.2667 0.0318
vn -0.9603 -0.2751 0.0459
vn -0.9879 -0.1048 0.1145
vn -0.9480 0.2945 -0.1204
vn 0.5172 0.4163 -0.7478
vn 0.1437 0.9187 -0.3679
vn 0.7941 0.4234 -0.4360
vn -0.8189 0.3554 -0.4506
vn -0.1684 0.9209 -0.3514
vn -0.2263 0.6768 -0.7006
vn 0.4425 0.8564 -0.2661
vn -0.0068 0.9193 -0.3934
vn -0.0093 0.9574 -0.2885
vn -0.4513 0.8545 -0.2572
vn -0.9353 -0.3155 -0.1603
vn 0.9354 -0.2499 -0.2500
vn -0.1387 -0.9902 0.0148
vn 0.0081 -0.9896 0.1437
vn 0.0032 -0.9902 0.1397
vn -0.0255 -0.9911 0.1309
vn 0.0051 -0.9958 -0.0918
vn 0.0804 -0.9942 0.0714
vn 0.0303 -0.9901 0.1373
vn 0.0128 -0.9897 0.1427
vn -0.0449 0.7747 -0.6308
usemtl Material.00134d
s 1
f 91/91/91 92/92/92 93/93/93
f 94/94/94 95/95/95 96/96/96
f 97/97/97 98/98/98 99/99/99
f 100/100/100 101/101/101 102/102/102
f 98/98/98 103/103/103 91/91/91
f 91/91/91 99/99/99 98/98/98
f 98/98/98 104/104/104 105/105/105
f 105/105/105 103/103/103 98/98/98
f 101/101/101 106/106/106 105/105/105
f 105/105/105 104/104/104 101/101/101
f 101/101/101 100/100/100 96/96/96
f 96/96/96 106/106/106 101/101/101
f 96/96/96 95/95/95 106/106/106
f 96/96/96 100/100/100 107/107/107
f 99/99/99 91/91/91 108/108/108
f 91/91/91 93/93/93 108/108/108
f 109/109/109 110/110/110 111/111/111
f 111/111/111 112/112/112 109/109/109
f 113/113/113 114/114/114 110/110/110
f 110/110/110 109/109/109 113/113/113
f 114/114/114 115/115/115 116/116/116
f 116/116/116 110/110/110 114/114/114
f 107/107/107 94/94/94 96/96/96
f 98/98/98 97/97/97 117/117/117
f 117/117/117 104/104/104 98/98/98
f 104/104/104 117/117/117 102/102/102
f 102/102/102 101/101/101 104/104/104
f 91/91/91 103/103/103 92/92/92
f 109/109/109 107/107/107 100/100/100
f 100/100/100 102/102/102 109/109/109
f 113/113/113 109/109/109 102/102/102
f 102/102/102 117/117/117 113/113/113
f 97/97/97 114/114/114 113/113/113
f 113/113/113 117/117/117 97/97/97
f 97/97/97 99/99/99 108/108/108
f 108/108/108 114/114/114 97/97/97
