# Blender v2.92.0 OBJ File: ''
# www.blender.org
mtllib sambrow.mtl
o Sam_Head.007
v -0.358900 -0.246063 2.820898
v -0.260000 -0.158165 3.018798
v -0.388300 -0.191162 2.817298
v -0.839000 0.010338 2.820898
v -0.641100 -0.048264 2.938198
v -0.835300 0.017738 2.897898
v -0.652100 -0.055565 2.828298
v -0.498200 -0.114159 2.824598
v -0.465200 -0.099564 2.971198
v -0.344300 -0.136162 2.993098
v -0.183100 -0.048264 3.183698
v -0.274700 -0.026260 3.150698
v -0.142800 0.208237 3.238598
v -0.219700 0.219238 3.220298
v -0.124400 0.497734 3.198298
v -0.260000 0.497734 3.172698
v -0.358900 0.241241 3.190998
v -0.446900 0.545341 3.117698
v -0.531200 0.285240 3.150698
v -0.740000 0.336540 3.084698
v -0.795000 0.083641 3.022498
v -0.589800 0.036041 3.077398
v -0.417600 -0.000565 3.114098
v -1.703700 -0.088562 2.344598
v -1.678000 -0.026260 2.439898
v -1.795300 -0.033562 2.315298
v -1.747700 0.054337 2.425198
v -1.608400 0.017738 2.527798
v -1.674400 0.123940 2.531498
v -1.480200 0.072639 2.655998
v -1.509500 0.167938 2.677998
v -1.264000 0.105637 2.714698
v -1.267700 0.171638 2.780598
v -1.025800 0.076340 2.850198
v -1.044100 0.091042 2.762298
v -1.000200 0.138641 2.960198
v -1.260300 0.248535 2.853898
v -1.516800 0.259537 2.725698
v -1.714700 0.215538 2.549798
v -1.813600 0.138641 2.395898
v -1.879600 0.047035 2.278598
v -1.901500 -0.066559 2.183398
v -1.813600 -0.106865 2.245698
v -1.897900 -0.143562 2.150398
v -1.762300 -0.143562 2.223698
v -2.026100 -0.106865 2.025798
v -2.007800 0.010338 2.099098
v -1.960200 0.138641 2.212698
v -1.875900 0.244934 2.355598
v -1.736700 0.343842 2.524098
v -1.520500 0.413437 2.688998
v -1.249300 0.428139 2.857598
v -0.956200 0.380440 2.993098
v -0.904900 0.647934 2.956498
v -0.677700 0.603935 3.037098
v -2.044500 0.112938 1.952498
v -1.971200 0.285240 2.073398
v -1.846600 0.457436 2.212698
v -1.681700 0.596642 2.406898
v -1.465500 0.677238 2.604698
v -1.212700 0.684540 2.784298
v 0.366500 -0.246063 2.820898
v 0.395900 -0.191162 2.817298
v 0.267600 -0.158165 3.018798
v 0.472800 -0.099564 2.971198
v 0.505800 -0.114159 2.824598
v 0.351900 -0.136162 2.993098
v 0.190700 -0.048264 3.183698
v 0.282300 -0.026260 3.150698
v 0.150400 0.208237 3.238598
v 0.227300 0.219238 3.220298
v 0.132000 0.497734 3.198298
v 0.267600 0.497734 3.172698
v 0.366500 0.241241 3.190998
v 0.454500 0.545341 3.117698
v 0.538800 0.285240 3.150698
v 0.747600 0.336540 3.084698
v 0.802600 0.083641 3.022498
v 1.007800 0.138641 2.960198
v 1.033400 0.076340 2.850198
v 1.267900 0.248535 2.853898
v 1.275300 0.171638 2.780598
v 0.842900 0.017738 2.897898
v 0.597400 0.036041 3.077398
v 1.682000 0.123940 2.531498
v 1.487800 0.072639 2.655998
v 1.616000 0.017738 2.527798
v 1.517100 0.167938 2.677998
v 1.271600 0.105637 2.714698
v 1.051700 0.091042 2.762298
v 0.846600 0.010338 2.820898
v 0.648700 -0.048264 2.938198
v 0.425200 -0.000565 3.114098
v 0.659700 -0.055565 2.828298
v 1.524400 0.259537 2.725698
v 1.722300 0.215538 2.549798
v 1.821200 0.138641 2.395898
v 1.755300 0.054337 2.425198
v 1.887200 0.047035 2.278598
v 1.802900 -0.033562 2.315298
v 1.909100 -0.066559 2.183398
v 1.821200 -0.106865 2.245698
v 1.905500 -0.143562 2.150398
v 1.769900 -0.143562 2.223698
v 1.711300 -0.088562 2.344598
v 1.685600 -0.026260 2.439898
v 1.744300 0.343842 2.524098
v 1.528100 0.413437 2.688998
v 1.256900 0.428139 2.857598
v 0.963800 0.380440 2.993098
v 0.685300 0.603935 3.037098
v 0.912500 0.647934 2.956498
v 1.220300 0.684540 2.784298
v 1.473100 0.677238 2.604698
v 1.689300 0.596642 2.406898
v 1.883500 0.244934 2.355598
v 1.967800 0.138641 2.212698
v 2.015400 0.010338 2.099098
v 2.033700 -0.106865 2.025798
v 2.052100 0.112938 1.952498
v 1.978800 0.285240 2.073398
v 1.854200 0.457436 2.212698
vt 0.386700 0.615500
vt 0.418000 0.546600
vt 0.373000 0.587400
vt 0.310300 0.500500
vt 0.353500 0.500700
vt 0.318600 0.480500
vt 0.338600 0.533000
vt 0.356400 0.564000
vt 0.380600 0.520300
vt 0.400600 0.532500
vt 0.437300 0.496600
vt 0.418700 0.490700
vt 0.452900 0.409200
vt 0.433300 0.397500
vt 0.444600 0.324700
vt 0.421400 0.317900
vt 0.408000 0.386200
vt 0.383800 0.293000
vt 0.379400 0.370100
vt 0.337900 0.356900
vt 0.331500 0.454100
vt 0.368700 0.469700
vt 0.396000 0.482900
vt 0.119000 0.595200
vt 0.130600 0.557600
vt 0.100500 0.577600
vt 0.117600 0.529100
vt 0.148700 0.528100
vt 0.138200 0.491200
vt 0.181800 0.500200
vt 0.175500 0.461900
vt 0.222200 0.479500
vt 0.226200 0.450700
vt 0.280300 0.463900
vt 0.266800 0.478000
vt 0.291300 0.436500
vt 0.232200 0.415500
vt 0.176000 0.424800
vt 0.130100 0.455100
vt 0.101900 0.501500
vt 0.082300 0.552200
vt 0.070300 0.603500
vt 0.091900 0.611600
vt 0.069000 0.637000
vt 0.099600 0.629400
vt 0.038200 0.636500
vt 0.046100 0.586900
vt 0.059900 0.524200
vt 0.084200 0.468300
vt 0.120800 0.418000
vt 0.170200 0.371100
vt 0.229600 0.345200
vt 0.293500 0.342300
vt 0.290300 0.252900
vt 0.335000 0.268100
vt 0.021400 0.573200
vt 0.039100 0.492700
vt 0.066300 0.421400
vt 0.106400 0.345700
vt 0.155500 0.288100
vt 0.217300 0.260700
vt 0.609900 0.615000
vt 0.623500 0.587200
vt 0.579100 0.545900
vt 0.616200 0.519800
vt 0.640600 0.563500
vt 0.596200 0.532000
vt 0.559600 0.496100
vt 0.578100 0.490200
vt 0.544400 0.408200
vt 0.564000 0.396500
vt 0.552700 0.324200
vt 0.576200 0.317400
vt 0.589400 0.385700
vt 0.613800 0.292500
vt 0.618200 0.369600
vt 0.659700 0.356900
vt 0.665500 0.453600
vt 0.706100 0.436500
vt 0.716800 0.463900
vt 0.765100 0.415500
vt 0.771000 0.450700
vt 0.678200 0.480000
vt 0.628400 0.469200
vt 0.858900 0.491200
vt 0.815400 0.500500
vt 0.848100 0.528300
vt 0.821800 0.461900
vt 0.774900 0.479500
vt 0.730500 0.478000
vt 0.686500 0.500200
vt 0.643600 0.500200
vt 0.601100 0.482400
vt 0.658200 0.532500
vt 0.821300 0.424800
vt 0.867200 0.455600
vt 0.895000 0.502000
vt 0.879400 0.529300
vt 0.914600 0.552700
vt 0.896000 0.578100
vt 0.926300 0.604000
vt 0.904800 0.612100
vt 0.927700 0.637500
vt 0.897000 0.629900
vt 0.877900 0.595700
vt 0.866200 0.557900
vt 0.876500 0.418500
vt 0.827100 0.371100
vt 0.768100 0.345200
vt 0.704100 0.342300
vt 0.662600 0.268100
vt 0.707500 0.252900
vt 0.780800 0.261200
vt 0.842300 0.288100
vt 0.891100 0.346200
vt 0.913100 0.468800
vt 0.937000 0.524700
vt 0.950700 0.587400
vt 0.958500 0.637200
vt 0.975600 0.574000
vt 0.958000 0.493200
vt 0.931200 0.421900
vn -0.7554 -0.3690 0.5414
vn -0.4028 -0.7218 0.5628
vn -0.6021 -0.6811 0.4166
vn -0.3302 -0.9404 0.0815
vn -0.3493 -0.8648 0.3606
vn -0.3535 -0.8745 0.3321
vn -0.3428 -0.9344 0.0964
vn -0.4330 -0.8849 0.1714
vn -0.3557 -0.8236 0.4418
vn -0.3441 -0.7971 0.4963
vn -0.3903 -0.3731 0.8417
vn -0.3464 -0.4595 0.8178
vn -0.2496 -0.0262 0.9680
vn -0.2237 -0.0364 0.9740
vn -0.1882 0.1412 0.9719
vn -0.2084 0.1491 0.9666
vn -0.2336 -0.0394 0.9715
vn -0.2391 0.1925 0.9517
vn -0.2584 -0.0048 0.9660
vn -0.3229 0.0440 0.9454
vn -0.3543 -0.5131 0.7818
vn -0.3096 -0.5162 0.7985
vn -0.2969 -0.5124 0.8058
vn -0.5154 -0.6244 0.5869
vn -0.6103 -0.4593 0.6455
vn -0.6153 -0.4686 0.6339
vn -0.6571 -0.3730 0.6551
vn -0.5886 -0.3904 0.7079
vn -0.6046 -0.3858 0.6969
vn -0.4064 -0.3277 0.8529
vn -0.4415 -0.4081 0.7991
vn -0.3248 -0.6888 0.6482
vn -0.3807 -0.6287 0.6781
vn -0.3784 -0.8822 0.2802
vn -0.1416 -0.9807 -0.1346
vn -0.4384 -0.4500 0.7781
vn -0.4567 -0.2808 0.8442
vn -0.5161 -0.1341 0.8460
vn -0.6821 -0.1997 0.7034
vn -0.7293 -0.2737 0.6271
vn -0.7190 -0.3202 0.6169
vn -0.6876 -0.3467 0.6380
vn -0.4903 -0.6110 0.6215
vn -0.6423 -0.3881 0.6609
vn -0.3243 -0.7769 0.5397
vn -0.7119 -0.2937 0.6379
vn -0.8411 -0.1582 0.5173
vn -0.8840 0.0013 0.4674
vn -0.8492 0.0991 0.5187
vn -0.7401 0.2362 0.6296
vn -0.5813 0.2717 0.7670
vn -0.4607 0.1679 0.8715
vn -0.4010 0.0874 0.9119
vn -0.3890 0.2109 0.8968
vn -0.2771 0.2306 0.9328
vn -0.9450 0.1483 0.2915
vn -0.9118 0.2610 0.3171
vn -0.8431 0.3753 0.3852
vn -0.7376 0.3928 0.5492
vn -0.6136 0.3405 0.7124
vn -0.4871 0.2827 0.8263
vn 0.7554 -0.3690 0.5414
vn 0.6021 -0.6811 0.4166
vn 0.4028 -0.7218 0.5628
vn 0.3557 -0.8236 0.4418
vn 0.4330 -0.8849 0.1714
vn 0.3441 -0.7971 0.4963
vn 0.3903 -0.3731 0.8417
vn 0.3464 -0.4595 0.8178
vn 0.2496 -0.0262 0.9680
vn 0.2237 -0.0364 0.9740
vn 0.1882 0.1412 0.9719
vn 0.2084 0.1491 0.9666
vn 0.2336 -0.0394 0.9715
vn 0.2391 0.1925 0.9517
vn 0.2584 -0.0048 0.9660
vn 0.3229 0.0440 0.9454
vn 0.3543 -0.5131 0.7818
vn 0.4384 -0.4500 0.7781
vn 0.3784 -0.8822 0.2802
vn 0.4567 -0.2808 0.8442
vn 0.3807 -0.6287 0.6781
vn 0.3535 -0.8745 0.3321
vn 0.3096 -0.5162 0.7985
vn 0.6046 -0.3858 0.6969
vn 0.4064 -0.3277 0.8529
vn 0.5886 -0.3904 0.7079
vn 0.4415 -0.4081 0.7991
vn 0.3248 -0.6888 0.6482
vn 0.1416 -0.9807 -0.1346
vn 0.3302 -0.9404 0.0815
vn 0.3493 -0.8648 0.3606
vn 0.2969 -0.5124 0.8058
vn 0.3428 -0.9344 0.0964
vn 0.5161 -0.1341 0.8460
vn 0.6821 -0.1997 0.7034
vn 0.7293 -0.2737 0.6271
vn 0.6571 -0.3730 0.6551
vn 0.7190 -0.3202 0.6169
vn 0.6153 -0.4686 0.6339
vn 0.6876 -0.3467 0.6380
vn 0.4903 -0.6110 0.6215
vn 0.6423 -0.3881 0.6609
vn 0.3243 -0.7769 0.5397
vn 0.5154 -0.6244 0.5869
vn 0.6103 -0.4593 0.6455
vn 0.7402 0.2362 0.6296
vn 0.5813 0.2717 0.7670
vn 0.4607 0.1679 0.8715
vn 0.4010 0.0874 0.9119
vn 0.2771 0.2306 0.9328
vn 0.3890 0.2109 0.8968
vn 0.4871 0.2827 0.8263
vn 0.6136 0.3405 0.7124
vn 0.7376 0.3928 0.5492
vn 0.8492 0.0991 0.5187
vn 0.8840 0.0013 0.4674
vn 0.8411 -0.1582 0.5173
vn 0.7119 -0.2937 0.6379
vn 0.9450 0.1483 0.2915
vn 0.9118 0.2610 0.3171
vn 0.8431 0.3753 0.3852
usemtl Sam_Eyebros
s 1
f 1/1/1 2/2/2 3/3/3
f 4/4/4 5/5/5 6/6/6
f 4/4/4 7/7/7 5/5/5
f 7/7/7 8/8/8 5/5/5
f 5/5/5 8/8/8 9/9/9
f 8/8/8 3/3/3 9/9/9
f 3/3/3 10/10/10 9/9/9
f 3/3/3 2/2/2 10/10/10
f 2/2/2 11/11/11 10/10/10
f 10/10/10 11/11/11 12/12/12
f 11/11/11 13/13/13 12/12/12
f 12/12/12 13/13/13 14/14/14
f 13/13/13 15/15/15 14/14/14
f 15/15/15 16/16/16 14/14/14
f 14/14/14 16/16/16 17/17/17
f 16/16/16 18/18/18 17/17/17
f 17/17/17 18/18/18 19/19/19
f 18/18/18 20/20/20 19/19/19
f 19/19/19 20/20/20 21/21/21
f 6/6/6 5/5/5 22/22/22
f 5/5/5 23/23/23 22/22/22
f 9/9/9 23/23/23 5/5/5
f 12/12/12 23/23/23 9/9/9
f 10/10/10 12/12/12 9/9/9
f 24/24/24 25/25/25 26/26/26
f 26/26/26 25/25/25 27/27/27
f 25/25/25 28/28/28 27/27/27
f 27/27/27 28/28/28 29/29/29
f 28/28/28 30/30/30 29/29/29
f 29/29/29 30/30/30 31/31/31
f 30/30/30 32/32/32 31/31/31
f 31/31/31 32/32/32 33/33/33
f 33/33/33 32/32/32 34/34/34
f 32/32/32 35/35/35 34/34/34
f 34/34/34 35/35/35 4/4/4
f 34/34/34 4/4/4 6/6/6
f 21/21/21 34/34/34 6/6/6
f 22/22/22 21/21/21 6/6/6
f 19/19/19 21/21/21 22/22/22
f 22/22/22 23/23/23 19/19/19
f 19/19/19 23/23/23 17/17/17
f 23/23/23 12/12/12 17/17/17
f 17/17/17 12/12/12 14/14/14
f 20/20/20 36/36/36 21/21/21
f 21/21/21 36/36/36 34/34/34
f 36/36/36 37/37/37 34/34/34
f 34/34/34 37/37/37 33/33/33
f 37/37/37 38/38/38 33/33/33
f 33/33/33 38/38/38 31/31/31
f 38/38/38 39/39/39 31/31/31
f 31/31/31 39/39/39 29/29/29
f 39/39/39 40/40/40 29/29/29
f 29/29/29 40/40/40 27/27/27
f 40/40/40 41/41/41 27/27/27
f 27/27/27 41/41/41 26/26/26
f 41/41/41 42/42/42 26/26/26
f 26/26/26 42/42/42 43/43/43
f 42/42/42 44/44/44 43/43/43
f 44/44/44 45/45/45 43/43/43
f 45/45/45 24/24/24 43/43/43
f 43/43/43 24/24/24 26/26/26
f 42/42/42 46/46/46 44/44/44
f 47/47/47 46/46/46 42/42/42
f 41/41/41 47/47/47 42/42/42
f 48/48/48 47/47/47 41/41/41
f 40/40/40 48/48/48 41/41/41
f 49/49/49 48/48/48 40/40/40
f 39/39/39 49/49/49 40/40/40
f 50/50/50 49/49/49 39/39/39
f 38/38/38 50/50/50 39/39/39
f 51/51/51 50/50/50 38/38/38
f 37/37/37 51/51/51 38/38/38
f 52/52/52 51/51/51 37/37/37
f 36/36/36 52/52/52 37/37/37
f 53/53/53 52/52/52 36/36/36
f 36/36/36 20/20/20 53/53/53
f 53/53/53 20/20/20 54/54/54
f 54/54/54 20/20/20 55/55/55
f 20/20/20 18/18/18 55/55/55
f 48/48/48 56/56/56 47/47/47
f 57/57/57 56/56/56 48/48/48
f 49/49/49 57/57/57 48/48/48
f 58/58/58 57/57/57 49/49/49
f 59/59/59 58/58/58 49/49/49
f 50/50/50 59/59/59 49/49/49
f 51/51/51 59/59/59 50/50/50
f 60/60/60 59/59/59 51/51/51
f 52/52/52 60/60/60 51/51/51
f 61/61/61 60/60/60 52/52/52
f 53/53/53 61/61/61 52/52/52
f 54/54/54 61/61/61 53/53/53
f 62/62/62 63/63/63 64/64/64
f 65/65/65 63/63/63 66/66/66
f 63/63/63 65/65/65 67/67/67
f 64/64/64 63/63/63 67/67/67
f 68/68/68 64/64/64 67/67/67
f 69/69/69 68/68/68 67/67/67
f 70/70/70 68/68/68 69/69/69
f 71/71/71 70/70/70 69/69/69
f 72/72/72 70/70/70 71/71/71
f 73/73/73 72/72/72 71/71/71
f 74/74/74 73/73/73 71/71/71
f 75/75/75 73/73/73 74/74/74
f 74/74/74 76/76/76 75/75/75
f 76/76/76 77/77/77 75/75/75
f 76/76/76 78/78/78 77/77/77
f 78/78/78 79/79/79 77/77/77
f 79/79/79 78/78/78 80/80/80
f 81/81/81 79/79/79 80/80/80
f 82/82/82 81/81/81 80/80/80
f 80/80/80 78/78/78 83/83/83
f 78/78/78 84/84/84 83/83/83
f 84/84/84 78/78/78 76/76/76
f 85/85/85 86/86/86 87/87/87
f 88/88/88 86/86/86 85/85/85
f 86/86/86 88/88/88 89/89/89
f 89/89/89 88/88/88 82/82/82
f 82/82/82 80/80/80 89/89/89
f 89/89/89 80/80/80 90/90/90
f 90/90/90 80/80/80 91/91/91
f 80/80/80 83/83/83 91/91/91
f 83/83/83 92/92/92 91/91/91
f 84/84/84 92/92/92 83/83/83
f 84/84/84 93/93/93 92/92/92
f 76/76/76 93/93/93 84/84/84
f 93/93/93 76/76/76 74/74/74
f 69/69/69 93/93/93 74/74/74
f 71/71/71 69/69/69 74/74/74
f 67/67/67 65/65/65 69/69/69
f 65/65/65 93/93/93 69/69/69
f 93/93/93 65/65/65 92/92/92
f 92/92/92 65/65/65 66/66/66
f 92/92/92 66/66/66 94/94/94
f 91/91/91 92/92/92 94/94/94
f 95/95/95 81/81/81 82/82/82
f 88/88/88 95/95/95 82/82/82
f 95/95/95 88/88/88 96/96/96
f 96/96/96 88/88/88 85/85/85
f 85/85/85 97/97/97 96/96/96
f 98/98/98 97/97/97 85/85/85
f 97/97/97 98/98/98 99/99/99
f 98/98/98 100/100/100 99/99/99
f 99/99/99 100/100/100 101/101/101
f 100/100/100 102/102/102 101/101/101
f 102/102/102 103/103/103 101/101/101
f 104/104/104 103/103/103 102/102/102
f 105/105/105 104/104/104 102/102/102
f 102/102/102 100/100/100 105/105/105
f 105/105/105 100/100/100 106/106/106
f 100/100/100 98/98/98 106/106/106
f 106/106/106 98/98/98 87/87/87
f 87/87/87 98/98/98 85/85/85
f 107/107/107 95/95/95 96/96/96
f 108/108/108 95/95/95 107/107/107
f 81/81/81 95/95/95 108/108/108
f 109/109/109 81/81/81 108/108/108
f 79/79/79 81/81/81 109/109/109
f 110/110/110 79/79/79 109/109/109
f 77/77/77 79/79/79 110/110/110
f 75/75/75 77/77/77 111/111/111
f 111/111/111 77/77/77 112/112/112
f 77/77/77 110/110/110 112/112/112
f 112/112/112 110/110/110 113/113/113
f 110/110/110 109/109/109 113/113/113
f 109/109/109 114/114/114 113/113/113
f 108/108/108 114/114/114 109/109/109
f 115/115/115 114/114/114 108/108/108
f 107/107/107 115/115/115 108/108/108
f 116/116/116 115/115/115 107/107/107
f 96/96/96 116/116/116 107/107/107
f 97/97/97 116/116/116 96/96/96
f 97/97/97 117/117/117 116/116/116
f 99/99/99 117/117/117 97/97/97
f 118/118/118 117/117/117 99/99/99
f 101/101/101 118/118/118 99/99/99
f 119/119/119 118/118/118 101/101/101
f 103/103/103 119/119/119 101/101/101
f 120/120/120 117/117/117 118/118/118
f 121/121/121 117/117/117 120/120/120
f 117/117/117 121/121/121 116/116/116
f 121/121/121 122/122/122 116/116/116
f 116/116/116 122/122/122 115/115/115
