# Blender v2.92.0 OBJ File: ''
# www.blender.org
mtllib samchestmiddle3.mtl
o Sam_Body_1.002_Sam_Body_1.013
v -0.996600 0.889977 5.464700
v -1.436300 1.545776 5.479299
v -1.132200 0.952175 5.721099
v -1.366700 1.663074 5.219199
v -6.441500 2.982178 2.610299
v -6.547800 2.875877 2.614000
v -6.071500 2.447174 3.273499
v -6.225400 2.329975 3.313799
v -5.386300 1.824276 3.987999
v -5.510900 1.666775 4.200499
v -4.517900 1.395576 4.603599
v -4.591200 1.292976 4.860099
v -3.506600 1.281975 4.933399
v -3.554200 1.179375 5.189799
v -2.345000 1.450577 5.164199
v -2.451300 1.336975 5.398699
v -3.862000 -0.956825 4.958999
v -3.785100 -1.110622 4.698899
v -3.466300 -0.180023 5.204500
v -3.360000 -0.278923 4.947999
v -2.887300 0.556477 5.475599
v -2.781100 0.512581 5.215499
v -1.960300 0.842278 5.633200
v -1.850400 0.790977 5.376698
v -4.378600 -1.033726 4.603599
v -4.451900 -0.920124 4.819798
v -5.258000 -0.923824 4.119899
v -5.364300 -0.773624 4.288499
v -5.917600 -0.755219 3.570300
v -6.060500 -0.638023 3.625299
v -6.632100 0.362274 1.771200
v -6.808000 0.395275 1.859100
v -6.811600 1.443176 0.917500
v -6.991200 1.413876 1.049400
v -6.668700 2.154076 1.767500
v -6.815300 2.047775 1.822500
v -3.543200 0.439278 5.252099
v -6.525800 1.197777 2.694600
v -6.185100 0.670074 3.511699
v -5.459600 0.453876 4.292099
v -4.550900 0.354973 4.849099
vt 0.273200 0.093800
vt 0.261200 0.081100
vt 0.268100 0.091300
vt 0.262900 0.076200
vt 0.154300 0.051300
vt 0.154400 0.058100
vt 0.169900 0.064000
vt 0.167500 0.067900
vt 0.187000 0.074700
vt 0.186900 0.080600
vt 0.205900 0.082500
vt 0.206200 0.087400
vt 0.224400 0.085000
vt 0.224900 0.089800
vt 0.244800 0.081500
vt 0.244000 0.086400
vt 0.217500 0.127000
vt 0.220200 0.131800
vt 0.226000 0.113800
vt 0.228800 0.118200
vt 0.237400 0.100600
vt 0.240200 0.105000
vt 0.253700 0.094700
vt 0.256300 0.098600
vt 0.206300 0.129900
vt 0.207000 0.126000
vt 0.188500 0.127400
vt 0.188500 0.123000
vt 0.171800 0.124500
vt 0.171600 0.120100
vt 0.136000 0.104500
vt 0.138800 0.100600
vt 0.119500 0.082500
vt 0.125100 0.082500
vt 0.137200 0.067400
vt 0.139300 0.071800
vt 0.225300 0.102500
vt 0.154700 0.087400
vt 0.169700 0.097200
vt 0.187900 0.101600
vt 0.206300 0.104000
vt 0.728000 0.314500
vt 0.710900 0.310100
vt 0.734400 0.305200
vt 0.763200 0.214400
vt 0.765100 0.238300
vt 0.742700 0.213400
vt 0.717800 0.232400
vt 0.721700 0.211900
vt 0.692400 0.308100
vt 0.676300 0.315900
vt 0.674800 0.300800
vt 0.659200 0.310100
vt 0.664100 0.325200
vn -0.0484 0.4612 0.8860
vn 0.7642 0.5034 0.4032
vn 0.7970 0.5279 0.2935
vn -0.0171 0.1310 0.9912
vn -0.4956 0.5198 0.6958
vn -0.4771 0.5385 0.6946
vn -0.3031 0.6267 0.7179
vn -0.2721 0.6459 0.7133
vn -0.0173 0.7970 0.6038
vn -0.0011 0.8171 0.5764
vn 0.0377 0.9169 0.3974
vn 0.0284 0.9252 0.3784
vn -0.1048 0.9299 0.3525
vn -0.1113 0.9290 0.3529
vn -0.1656 0.1960 0.9665
vn -0.2052 0.9138 0.3504
vn -0.2153 0.9105 0.3530
vn 0.6920 -0.5130 0.5079
vn -0.3803 -0.2498 0.8905
vn 0.6360 -0.5928 0.4940
vn -0.1137 -0.2337 0.9656
vn 0.4722 -0.8118 0.3435
vn -0.1135 -0.1680 0.9792
vn 0.1770 -0.9486 0.2623
vn -0.1216 0.0121 0.9925
vn 0.0863 -0.9592 0.2691
vn -0.0485 0.4612 0.8860
vn -0.3466 -0.4604 0.8172
vn -0.1783 -0.8757 0.4487
vn -0.2391 -0.8855 0.3984
vn -0.5734 -0.3740 0.7289
vn -0.4532 -0.7885 0.4157
vn -0.7984 -0.3912 0.4578
vn -0.6205 -0.7840 0.0168
vn -0.9406 -0.1380 0.3102
vn -0.4009 -0.7501 -0.5260
vn -0.8714 0.1641 0.4623
vn -0.4001 -0.6133 -0.6810
vn -0.4896 0.7076 -0.5095
vn -0.5037 0.7045 -0.5000
vn -0.6217 0.6491 -0.4383
vn -0.6311 0.6518 -0.4206
vn -0.6407 0.6283 -0.4413
vn -0.6428 0.6275 -0.4393
vn -0.2833 0.1106 0.9526
vn -0.4640 0.0077 0.8858
vn -0.3324 -0.0337 0.9425
vn -0.9568 0.0022 0.2906
vn -0.9752 0.0006 0.2214
vn -0.9492 -0.0223 0.3140
vn -0.9327 -0.0055 0.3605
vn -0.9277 0.0058 0.3733
vn -0.8718 0.0269 0.4890
vn -0.8452 -0.0110 0.5344
vn -0.6890 0.0423 0.7235
vn -0.6411 -0.0232 0.7671
vn -0.4432 -0.0484 0.8951
vn -0.3219 -0.1017 0.9413
vn -0.2640 0.1216 0.9568
vn -0.1966 0.2462 0.9491
vn -0.1697 0.2795 0.9450
vn -0.1394 0.3100 0.9405
vn -0.1388 0.3118 0.9400
vn -0.7901 -0.0221 0.6126
vn -0.6023 -0.0361 0.7974
vn -0.3969 -0.0791 0.9144
vn -0.2365 -0.1812 0.9546
vn -0.1376 -0.1366 0.9810
vn -0.4692 -0.2979 0.8313
vn -0.9704 0.0553 0.2350
vn -0.9886 -0.0110 0.1500
vn -0.9940 -0.0833 0.0708
vn -0.8955 -0.4199 0.1477
vn -0.8967 -0.1707 0.4083
vn -0.4569 0.0570 0.8877
vn -0.1491 0.2140 0.9654
usemtl Sam_Body_D
s 1
f 1/1/1 2/2/2 3/3/3
f 4/4/4 2/2/2 1/1/1
f 5/5/5 6/6/6 7/7/7
f 6/6/6 8/8/8 7/7/7
f 7/7/7 8/8/8 9/9/9
f 8/8/8 10/10/10 9/9/9
f 9/9/9 10/10/10 11/11/11
f 10/10/10 12/12/12 11/11/11
f 11/11/11 12/12/12 13/13/13
f 12/12/12 14/14/14 13/13/13
f 13/13/13 14/14/14 15/15/15
f 14/14/14 16/16/16 15/15/15
f 15/15/15 16/16/16 4/4/4
f 16/16/16 2/2/17 4/4/4
f 17/17/18 18/18/19 19/19/20
f 18/18/19 20/20/21 19/19/20
f 19/19/20 20/20/21 21/21/22
f 20/20/21 22/22/23 21/21/22
f 21/21/22 22/22/23 23/23/24
f 22/22/23 24/24/25 23/23/24
f 24/24/25 3/3/26 23/23/24
f 1/1/27 3/3/26 24/24/25
f 25/25/28 18/18/19 17/17/29
f 26/26/30 25/25/28 17/17/29
f 27/27/31 25/25/28 26/26/30
f 26/26/30 28/28/32 27/27/31
f 27/27/31 28/28/32 29/29/33
f 28/28/32 30/30/34 29/29/33
f 29/29/33 30/30/34 31/31/35
f 30/30/34 32/32/36 31/31/35
f 31/31/35 32/32/36 33/33/37
f 32/32/36 34/34/38 33/33/37
f 33/33/39 34/34/40 35/35/41
f 34/34/40 36/36/42 35/35/41
f 35/35/41 36/36/42 5/5/43
f 36/36/42 6/6/44 5/5/43
f 14/14/45 12/12/46 37/37/47
f 36/36/48 34/34/49 32/32/50
f 38/38/51 36/36/48 32/32/50
f 6/6/52 36/36/48 38/38/51
f 8/8/53 6/6/52 38/38/51
f 39/39/54 8/8/53 38/38/51
f 10/10/55 8/8/53 39/39/54
f 40/40/56 10/10/55 39/39/54
f 12/12/46 10/10/55 40/40/56
f 12/12/46 40/40/56 41/41/57
f 37/37/47 12/12/46 41/41/57
f 41/41/57 19/19/58 37/37/47
f 19/19/58 21/21/59 37/37/47
f 21/21/59 14/14/45 37/37/47
f 16/16/60 14/14/45 21/21/59
f 23/23/61 16/16/60 21/21/59
f 3/3/62 16/16/60 23/23/61
f 2/2/63 16/16/60 3/3/62
f 39/39/54 38/38/51 32/32/50
f 30/30/64 39/39/54 32/32/50
f 28/28/65 39/39/54 30/30/64
f 40/40/56 39/39/54 28/28/65
f 40/40/56 28/28/65 26/26/66
f 41/41/57 40/40/56 26/26/66
f 26/26/66 19/19/58 41/41/57
f 17/17/67 19/19/58 26/26/66
f 18/42/19 20/43/68 25/44/69
f 33/45/37 31/46/70 35/47/71
f 7/48/72 5/49/73 35/47/74
f 22/50/75 24/51/25 15/52/76
f 15/52/76 24/51/25 4/53/4
f 24/51/25 1/54/1 4/53/4
