# Blender v2.92.0 OBJ File: ''
# www.blender.org
mtllib samchestmiddle2.mtl
o Sam_Body_1.001_Sam_Body_1.012
v -0.289500 6.812084 3.863399
v 0.289500 7.804981 3.101300
v -0.289500 7.804981 3.101300
v 0.289500 6.812084 3.863399
v -0.289500 6.251381 3.713199
v 0.289500 6.251385 3.713200
v -0.289500 7.116184 1.877500
v 0.289500 7.116184 1.877500
v -0.289500 6.137886 3.156299
v -0.289500 6.324680 2.701900
v 0.289500 6.324684 2.701900
v 0.289500 6.137886 3.156300
v -0.996600 0.865185 5.464700
v -1.366700 1.638283 5.219199
v -0.622900 4.335083 4.482699
v -0.622900 3.466682 4.830799
v -0.648600 5.045883 4.105299
v -0.714500 5.412384 3.823100
v -0.850100 5.756783 3.507999
v -1.000300 6.101185 3.042700
v -1.029600 6.233086 2.701900
v -0.655900 3.034283 4.841799
v -0.710800 2.470085 5.072599
v -0.945300 1.920383 5.164199
v 0.000000 6.379681 2.701900
v 0.000000 6.137886 3.156300
v -0.663200 6.269783 2.701900
v 1.029600 6.233082 2.701900
v 1.000300 6.101185 3.042700
v 0.850100 5.756783 3.507999
v 0.714500 5.412384 3.823099
v 0.648600 5.045883 4.105299
v 0.641200 4.661182 4.226199
v 0.622900 4.335083 4.482699
v 0.622900 3.466682 4.830800
v 0.655900 3.034283 4.841800
v 0.710800 2.470085 5.072599
v 0.945300 1.920383 5.164199
v 1.366700 1.638283 5.219199
v 0.996600 0.865185 5.464699
v 0.000000 0.909084 5.589199
v -0.461700 7.112480 2.727499
v -0.633900 7.112480 3.332099
v -0.461700 7.112484 3.379800
v -0.633900 7.112480 2.727499
v 0.633900 7.112484 3.332099
v 0.410400 6.002285 4.200500
v 0.582600 6.002285 4.152899
v 0.461700 7.112484 3.379799
v 0.633900 7.112484 2.727500
v 0.326100 1.099686 5.834699
v 0.604600 1.055683 5.647899
v 0.868400 1.891083 5.354699
v 0.912400 0.986084 5.567299
v 1.234800 1.641983 5.373098
v 0.608200 2.550686 5.244799
v 0.546000 3.107586 5.134899
v 0.516600 3.646286 5.017599
v 0.524000 4.455986 4.768499
v 0.641200 4.664883 4.226199
v 0.542300 4.910385 4.588900
v 0.564300 5.287785 4.464300
v 0.388400 5.306084 4.541299
v 0.362700 4.932384 4.687900
v 0.340800 4.492683 4.871099
v 0.000000 4.939686 4.742800
v 0.000000 5.309784 4.592599
v 0.000000 6.002285 4.284800
v -0.388400 5.306084 4.541299
v -0.362700 4.932384 4.687899
v -0.340800 4.492683 4.871099
v -0.542300 4.910385 4.588899
v -0.524000 4.455986 4.768499
v -0.641200 4.664883 4.226199
v -0.516600 3.646286 5.017599
v -0.546000 3.107586 5.134900
v -0.608200 2.550686 5.244799
v -0.564300 5.287785 4.464300
v -0.582600 6.002285 4.152900
v 0.000000 3.180885 5.340099
v 0.000000 3.723183 5.171500
v -0.315100 3.166183 5.292399
v -0.300500 3.719482 5.127600
v 0.000000 4.510983 4.918699
v 0.300500 3.719482 5.127599
v 0.315100 3.166183 5.292399
v 0.000000 2.623886 5.508599
v -0.362700 2.601986 5.457299
v -0.868400 1.891083 5.354699
v -0.417700 2.048683 5.596600
v 0.000000 2.055984 5.658899
v -1.234800 1.641983 5.373099
v -0.912400 0.986084 5.567299
v -0.604600 1.055683 5.647900
v -0.326100 1.099686 5.834699
v 0.000000 1.117985 5.904398
v 0.417700 2.048683 5.596599
v 0.362700 2.601986 5.457300
v -0.410400 6.002285 4.200499
v 0.461700 7.112484 2.727500
vt 0.454300 0.070300
vt 0.470000 0.043500
vt 0.454300 0.043500
vt 0.470000 0.070300
vt 0.454300 0.085000
vt 0.470000 0.085000
vt 0.454300 0.010700
vt 0.470000 0.010700
vt 0.435300 0.077600
vt 0.446500 0.077600
vt 0.428200 0.070300
vt 0.428200 0.043500
vt 0.496300 0.043500
vt 0.496300 0.070300
vt 0.489000 0.077600
vt 0.478000 0.077600
vt 0.470000 0.109900
vt 0.470000 0.105000
vt 0.454300 0.109900
vt 0.454300 0.105000
vt 0.454300 0.100100
vt 0.470000 0.100100
vt 0.205900 0.364700
vt 0.197600 0.363800
vt 0.205900 0.374000
vt 0.197600 0.374000
vt 0.189300 0.374000
vt 0.189300 0.364700
vt 0.370800 0.200200
vt 0.366700 0.214800
vt 0.370800 0.214800
vt 0.366700 0.200200
vt 0.390900 0.214800
vt 0.386700 0.246600
vt 0.390900 0.246600
vt 0.386700 0.214800
vt 0.412600 0.234900
vt 0.416000 0.229000
vt 0.400600 0.210400
vt 0.406300 0.246600
vt 0.402800 0.255400
vt 0.399200 0.265100
vt 0.384500 0.360400
vt 0.392800 0.360400
vt 0.399200 0.340800
vt 0.399900 0.361300
vt 0.407000 0.346700
vt 0.404100 0.338400
vt 0.394000 0.326200
vt 0.398700 0.326200
vt 0.392300 0.313500
vt 0.399400 0.313000
vt 0.396700 0.303700
vt 0.391400 0.300800
vt 0.397200 0.283200
vt 0.390900 0.282700
vt 0.400400 0.274400
vt 0.390900 0.272500
vt 0.390900 0.263200
vt 0.386700 0.263200
vt 0.412100 0.345700
vt 0.386700 0.272500
vt 0.386700 0.282700
vt 0.378900 0.272500
vt 0.378900 0.263200
vt 0.378900 0.246600
vt 0.370800 0.263200
vt 0.370800 0.272500
vt 0.370800 0.282700
vt 0.366700 0.272500
vt 0.366700 0.282700
vt 0.357400 0.274400
vt 0.360600 0.283200
vt 0.366500 0.300800
vt 0.361100 0.303700
vt 0.365500 0.313500
vt 0.358400 0.313000
vt 0.359100 0.326200
vt 0.363800 0.326200
vt 0.353800 0.338400
vt 0.358600 0.265100
vt 0.366700 0.263200
vt 0.366700 0.246600
vt 0.355000 0.255400
vt 0.351600 0.246600
vt 0.345200 0.234900
vt 0.378900 0.313500
vt 0.378900 0.300800
vt 0.370800 0.313500
vt 0.370800 0.300800
vt 0.378900 0.282700
vt 0.386700 0.300800
vt 0.386700 0.313500
vt 0.378900 0.326200
vt 0.370800 0.326200
vt 0.358600 0.340800
vt 0.370800 0.338900
vt 0.378900 0.338900
vt 0.350600 0.346700
vt 0.357900 0.361300
vt 0.365000 0.360400
vt 0.373300 0.360400
vt 0.378900 0.360400
vt 0.386700 0.338900
vt 0.386700 0.326200
vt 0.345700 0.345700
vt 0.789600 0.605700
vt 0.790000 0.622100
vt 0.807100 0.605700
vt 0.811500 0.617200
vt 0.811500 0.639900
vt 0.807100 0.590600
vt 0.789600 0.599600
vt 0.807100 0.599600
vt 0.829600 0.639900
vt 0.851100 0.622100
vt 0.829600 0.617200
vt 0.833500 0.605700
vt 0.851100 0.605700
vt 0.851100 0.599600
vt 0.820300 0.617200
vt 0.820300 0.639900
vt 0.357200 0.210400
vt 0.341800 0.229000
vt 0.370800 0.246600
vt 0.390900 0.200200
vt 0.386700 0.200200
vt 0.403100 0.366700
vt 0.354700 0.366700
vt 0.378900 0.366700
vn 0.0000 0.6089 0.7933
vn -0.0000 -0.2588 0.9659
vn 0.0000 0.8715 -0.4905
vn 0.1479 0.8306 0.5369
vn -1.0000 -0.0000 0.0000
vn 1.0000 0.0000 0.0000
vn 0.0000 -0.7214 -0.6926
vn 0.0014 -0.6233 -0.7820
vn 0.0000 -0.6233 -0.7819
vn 0.0000 -0.9955 -0.0943
vn 0.0000 -0.9799 0.1997
vn 0.1284 0.8392 0.5284
vn -0.0000 0.9113 0.4117
vn 0.0281 0.9587 0.2830
vn -0.0000 0.9530 0.3031
vn -0.0281 0.9587 0.2830
vn 0.1611 0.7002 0.6955
vn -0.0000 1.0000 -0.0000
vn 0.7629 0.4597 0.4545
vn 0.2163 0.4708 0.8553
vn 0.6534 0.3496 0.6715
vn 0.2187 0.5735 0.7895
vn 0.9242 0.2736 0.2664
vn 0.8902 0.3939 0.2290
vn 0.9345 0.3529 0.0459
vn 0.9289 0.0472 0.3673
vn 0.9437 0.0267 0.3297
vn 0.9723 0.0453 0.2293
vn 0.3783 0.1782 0.9084
vn 0.4546 0.1637 0.8755
vn 0.5748 0.4111 0.7076
vn 0.2471 0.2330 0.9406
vn 0.3543 0.6019 0.7157
vn 0.6944 0.6135 0.3761
vn 0.7731 0.2940 0.5620
vn 0.8794 0.3236 0.3491
vn 0.7880 0.2072 0.5798
vn 0.9375 0.1494 0.3142
vn 0.9188 0.1290 0.3731
vn 0.7415 0.1934 0.6425
vn 0.9498 0.1263 0.2862
vn 0.7831 0.1978 0.5896
vn 0.9689 0.0730 0.2366
vn 0.7988 0.1830 0.5731
vn 0.9723 0.0451 0.2293
vn 0.7739 0.2005 0.6008
vn 0.2779 0.3560 0.8922
vn 0.4767 0.7880 0.3896
vn 0.3222 0.3386 0.8840
vn 0.3325 0.3130 0.8896
vn -0.0000 0.3726 0.9280
vn -0.0000 0.3908 0.9205
vn -0.0000 0.4265 0.9045
vn -0.2779 0.3560 0.8922
vn -0.3222 0.3386 0.8840
vn -0.3325 0.3130 0.8896
vn -0.7988 0.1830 0.5731
vn -0.7831 0.1978 0.5896
vn -0.9689 0.0730 0.2366
vn -0.9498 0.1263 0.2862
vn -0.7415 0.1934 0.6425
vn -0.9188 0.1290 0.3731
vn -0.7880 0.2072 0.5798
vn -0.9375 0.1494 0.3142
vn -0.8794 0.3236 0.3491
vn -0.7731 0.2940 0.5620
vn -0.6944 0.6135 0.3761
vn -0.9723 0.0452 0.2293
vn -0.7739 0.2005 0.6008
vn -0.6533 0.3496 0.6715
vn -0.9437 0.0267 0.3297
vn -0.9289 0.0472 0.3673
vn -0.9242 0.2736 0.2664
vn 0.0000 0.2932 0.9560
vn 0.0000 0.2993 0.9542
vn -0.3778 0.2816 0.8820
vn -0.3308 0.2724 0.9035
vn 0.0000 0.3429 0.9394
vn 0.3308 0.2724 0.9035
vn 0.3778 0.2816 0.8820
vn -0.0000 0.2747 0.9615
vn -0.3991 0.2838 0.8719
vn -0.5748 0.4111 0.7076
vn -0.3538 0.2353 0.9052
vn 0.0000 0.2545 0.9671
vn -0.3543 0.6019 0.7157
vn -0.2471 0.2330 0.9406
vn -0.4546 0.1637 0.8755
vn -0.3783 0.1782 0.9084
vn 0.0000 0.2311 0.9729
vn 0.3538 0.2353 0.9052
vn 0.3991 0.2838 0.8719
vn -0.4767 0.7880 0.3896
vn 0.9769 0.2135 -0.0000
vn 0.9824 0.1746 0.0659
vn 0.2958 0.7478 0.5944
vn 0.9835 0.1510 0.0994
vn 0.9809 0.1430 0.1321
vn -0.0031 0.0305 -0.9995
vn -0.0016 0.0316 -0.9995
vn -0.0037 0.0305 -0.9995
vn -0.0014 -0.6234 -0.7819
vn 0.0000 0.0325 -0.9995
vn -0.9809 0.1430 0.1321
vn -0.9824 0.1746 0.0659
vn -0.9835 0.1510 0.0994
vn -0.9831 0.1781 0.0427
vn -0.9769 0.2135 0.0000
vn 0.5118 -0.3707 -0.7750
vn 0.0207 0.9925 0.1207
vn -0.0000 0.9929 0.1193
vn -0.0207 0.9925 0.1207
vn -0.9345 0.3529 0.0459
vn -0.8902 0.3939 0.2290
vn -0.7629 0.4597 0.4545
vn -0.2163 0.4708 0.8553
vn -0.2187 0.5735 0.7895
vn 0.7453 -0.1760 0.6430
vn 0.7056 -0.1187 0.6986
vn 0.7375 -0.1640 0.6551
vn 0.7000 -0.1111 0.7054
vn -0.7453 -0.1760 0.6430
vn -0.0171 0.1310 0.9912
vn -0.7056 -0.1187 0.6986
vn -0.0529 0.4673 0.8825
vn -0.0708 -0.6163 0.7843
vn 0.0000 -0.8145 0.5802
vn -0.0707 -0.6148 0.7855
vn -0.0944 -0.6804 0.7267
vn -0.1345 -0.8613 0.4901
vn 0.0000 -0.8336 0.5524
vn 0.1345 -0.8613 0.4901
vn 0.0944 -0.6804 0.7267
vn 0.0707 -0.6148 0.7855
vn 0.0708 -0.6163 0.7843
usemtl Sam_Body_D
s 1
f 1/1/1 2/2/1 3/3/1
f 4/4/1 2/2/1 1/1/1
f 4/4/2 5/5/2 6/6/2
f 1/1/2 5/5/2 4/4/2
f 2/2/3 7/7/4 3/3/3
f 8/8/3 7/7/4 2/2/3
f 1/1/5 9/9/5 5/10/5
f 10/11/5 9/9/5 1/1/5
f 3/3/5 10/11/5 1/1/5
f 7/12/5 10/11/5 3/3/5
f 2/2/6 4/4/6 8/13/6
f 8/13/6 4/4/6 11/14/6
f 11/14/6 4/4/6 12/15/6
f 4/4/6 6/16/6 12/15/6
f 8/17/7 11/18/8 7/19/7
f 7/19/7 11/18/8 10/20/9
f 10/20/9 11/18/8 9/21/10
f 11/18/8 12/22/10 9/21/10
f 6/6/11 9/21/10 12/22/10
f 5/5/11 9/21/10 6/6/11
f 11/23/12 25/24/13 12/25/14
f 12/25/14 25/24/13 26/26/15
f 25/24/13 9/27/16 26/26/15
f 10/28/17 9/27/16 25/24/13
f 42/29/18 43/30/18 44/31/18
f 45/32/18 43/30/18 42/29/18
f 46/33/19 47/34/20 48/35/21
f 49/36/22 47/34/20 46/33/19
f 29/37/23 28/38/24 50/39/25
f 46/33/19 29/37/23 50/39/25
f 48/35/21 29/37/23 46/33/19
f 30/40/26 29/37/23 48/35/21
f 31/41/27 30/40/26 48/35/21
f 32/42/28 31/41/27 48/35/21
f 51/43/29 52/44/30 53/45/31
f 52/44/30 54/46/32 53/45/31
f 53/45/31 54/46/32 55/47/33
f 55/47/33 38/48/34 53/45/31
f 53/45/31 38/48/34 56/49/35
f 38/48/34 37/50/36 56/49/35
f 56/49/35 37/50/36 57/51/37
f 37/50/36 36/52/38 57/51/37
f 36/52/38 35/53/39 57/51/37
f 57/51/37 35/53/39 58/54/40
f 35/53/39 34/55/41 58/54/40
f 58/54/40 34/55/41 59/56/42
f 34/55/41 60/57/43 59/56/42
f 59/56/42 60/57/43 61/58/44
f 60/57/43 32/42/45 61/58/44
f 61/58/44 32/42/28 62/59/46
f 62/59/46 32/42/28 48/35/21
f 48/35/21 63/60/47 62/59/46
f 62/59/46 63/60/47 61/58/44
f 39/61/48 38/48/34 55/47/33
f 64/62/49 65/63/50 61/58/44
f 63/60/47 64/62/49 61/58/44
f 64/62/49 63/60/47 66/64/51
f 66/64/51 63/60/47 67/65/52
f 65/63/50 64/62/49 66/64/51
f 47/34/20 63/60/47 48/35/21
f 63/60/47 47/34/20 68/66/53
f 67/65/52 63/60/47 68/66/53
f 67/65/52 68/66/53 69/67/54
f 66/64/51 67/65/52 69/67/54
f 70/68/55 66/64/51 69/67/54
f 71/69/56 66/64/51 70/68/55
f 70/68/55 72/70/57 71/69/56
f 72/70/57 73/71/58 71/69/56
f 73/71/58 72/70/57 74/72/59
f 15/73/60 73/71/58 74/72/59
f 75/74/61 73/71/58 15/73/60
f 16/75/62 75/74/61 15/73/60
f 76/76/63 75/74/61 16/75/62
f 16/75/62 22/77/64 76/76/63
f 22/77/64 23/78/65 76/76/63
f 76/76/63 23/78/65 77/79/66
f 23/78/65 24/80/67 77/79/66
f 74/72/59 72/70/57 17/81/68
f 72/70/57 78/82/69 17/81/68
f 69/67/54 72/70/57 70/68/55
f 78/82/69 72/70/57 69/67/54
f 79/83/70 78/82/69 69/67/54
f 78/82/69 79/83/70 17/81/68
f 17/81/68 79/83/70 18/84/71
f 18/84/71 79/83/70 19/85/72
f 19/85/72 79/83/70 20/86/73
f 80/87/74 81/88/75 82/89/76
f 82/89/76 81/88/75 83/90/77
f 83/90/77 76/76/63 82/89/76
f 75/74/61 76/76/63 83/90/77
f 73/71/58 75/74/61 83/90/77
f 71/69/56 73/71/58 83/90/77
f 83/90/77 81/88/75 71/69/56
f 81/88/75 84/91/78 71/69/56
f 84/91/78 66/64/51 71/69/56
f 84/91/78 65/63/50 66/64/51
f 81/88/75 65/63/50 84/91/78
f 85/92/79 65/63/50 81/88/75
f 86/93/80 85/92/79 81/88/75
f 80/87/74 86/93/80 81/88/75
f 87/94/81 86/93/80 80/87/74
f 87/94/81 80/87/74 82/89/76
f 88/95/82 87/94/81 82/89/76
f 82/89/76 76/76/63 88/95/82
f 76/76/63 77/79/66 88/95/82
f 77/79/66 89/96/83 88/95/82
f 88/95/82 89/96/83 90/97/84
f 90/97/84 87/94/81 88/95/82
f 91/98/85 87/94/81 90/97/84
f 77/79/66 24/80/67 89/96/83
f 89/96/83 24/80/67 92/99/86
f 89/96/83 92/99/86 93/100/87
f 94/101/88 89/96/83 93/100/87
f 95/102/89 89/96/83 94/101/88
f 90/97/84 89/96/83 95/102/89
f 95/102/89 96/103/90 90/97/84
f 90/97/84 96/103/90 91/98/85
f 91/98/85 96/103/90 97/104/91
f 97/104/91 87/94/81 91/98/85
f 98/105/92 87/94/81 97/104/91
f 98/105/92 86/93/80 87/94/81
f 86/93/80 98/105/92 57/51/37
f 85/92/79 86/93/80 57/51/37
f 58/54/40 85/92/79 57/51/37
f 59/56/42 85/92/79 58/54/40
f 65/63/50 85/92/79 59/56/42
f 61/58/44 65/63/50 59/56/42
f 24/80/67 14/106/93 92/99/86
f 57/51/37 98/105/92 56/49/35
f 56/49/35 98/105/92 53/45/31
f 53/45/31 98/105/92 97/104/91
f 97/104/91 51/43/29 53/45/31
f 96/103/90 51/43/29 97/104/91
f 42/107/94 44/108/95 10/109/96
f 10/109/96 44/108/95 9/110/97
f 44/108/95 99/111/98 9/110/97
f 21/112/99 45/113/100 27/114/101
f 27/114/101 45/113/100 10/109/102
f 45/113/100 42/107/103 10/109/102
f 47/115/104 49/116/105 12/117/106
f 12/117/106 49/116/105 11/118/107
f 49/116/105 100/119/108 11/118/107
f 100/119/103 50/120/103 11/118/109
f 12/117/14 26/121/15 47/115/110
f 47/115/110 26/121/15 68/122/111
f 68/122/111 26/121/15 99/111/112
f 26/121/15 9/110/16 99/111/112
f 20/86/73 45/123/113 21/124/114
f 43/30/115 45/123/113 20/86/73
f 79/83/70 43/30/115 20/86/73
f 43/30/115 79/83/70 99/125/116
f 99/125/116 79/83/70 69/67/54
f 69/67/54 68/66/53 99/125/116
f 44/31/117 43/30/115 99/125/116
f 50/126/18 100/127/18 46/33/18
f 100/127/18 49/36/18 46/33/18
f 55/47/118 54/46/119 39/61/120
f 39/61/120 54/46/119 40/128/121
f 92/99/122 14/106/123 93/100/124
f 14/106/123 13/129/125 93/100/124
f 13/129/126 41/130/127 93/100/128
f 93/100/128 41/130/127 94/101/129
f 94/101/129 41/130/127 95/102/130
f 41/130/127 96/103/131 95/102/130
f 41/130/127 51/43/132 96/103/131
f 52/44/133 51/43/132 41/130/127
f 54/46/134 52/44/133 41/130/127
f 40/128/135 54/46/134 41/130/127
l 32 33
l 33 34
