# Blender v2.92.0 OBJ File: ''
# www.blender.org
mtllib samlid.mtl
o Sam_Head.008
v 1.879800 -0.236061 2.223598
v 1.832200 -0.210464 2.208998
v 1.802900 -0.217766 2.329898
v 1.473100 -0.078560 2.443498
v 1.286200 0.002037 2.491098
v 1.278900 -0.038261 2.502098
v 1.469500 -0.034561 2.417798
v 1.579400 -0.111465 2.362898
v 1.553700 -0.067566 2.348198
v 1.671000 -0.159164 2.263898
v 1.623300 -0.115166 2.256598
v 1.704000 -0.162766 2.175998
v 1.766200 -0.181160 2.183298
v 1.744300 -0.195763 2.289598
v 1.707600 -0.195763 2.454498
v 1.641700 -0.151863 2.403198
v 1.513400 -0.118866 2.491098
v 1.315600 -0.096863 2.568098
v 1.073700 -0.078560 2.611998
v 1.062700 -0.012566 2.542398
v 0.820900 -0.096863 2.579098
v 0.846600 -0.019859 2.535098
v 1.568400 -0.170166 2.560698
v 1.344900 -0.148163 2.663298
v 1.070100 -0.133461 2.714598
v 0.806200 -0.155464 2.655998
v 0.634000 -0.188461 2.564398
v 0.648700 -0.155464 2.538698
v 0.652400 -0.140862 2.502098
v 0.637700 -0.140862 2.465498
v 0.722000 -0.078560 2.443498
v 0.853900 0.031441 2.487498
v 1.059100 0.031441 2.527798
v 1.029800 -0.421959 2.567098
v 0.754900 -0.367065 2.559698
v 1.033400 -0.345062 2.537698
v 1.278900 -0.363365 2.530398
v 1.033400 -0.345062 2.559698
v 1.300900 -0.458664 2.534098
v 1.454800 -0.440262 2.471798
v 1.407200 -0.341362 2.468098
v 1.572000 -0.385361 2.394798
v 1.656300 -0.180161 2.251898
v 1.590400 -0.143562 2.262898
v 1.513400 -0.213165 2.332598
v 1.605000 -0.246063 2.317898
v 1.671000 -0.319359 2.288598
v 1.502400 -0.308365 2.413198
v 1.414500 -0.275459 2.413198
v 1.264300 -0.304764 2.479098
v 1.033400 -0.293762 2.504798
v 0.765900 -0.246063 2.460798
v 0.765900 -0.297363 2.515798
v 0.641400 -0.293762 2.504798
v 0.623000 -0.359665 2.548698
v 0.630400 -0.260765 2.438798
v 1.733300 -0.257065 2.218998
v -1.505800 -0.213165 2.332598
v -1.597400 -0.246063 2.317898
v -1.406900 -0.275459 2.413198
v -1.494800 -0.308365 2.413198
v -1.399600 -0.341362 2.468098
v -1.256700 -0.304764 2.479098
v -1.271300 -0.363365 2.530398
v -1.025800 -0.293762 2.504798
v -1.025800 -0.345062 2.559698
v -0.758300 -0.246063 2.460798
v -0.758300 -0.297363 2.515798
v -0.633800 -0.293762 2.504798
v -0.622800 -0.260765 2.438798
v -0.615400 -0.359665 2.548698
v -0.747300 -0.367065 2.559698
v -1.022200 -0.421959 2.567098
v -1.293300 -0.458664 2.534098
v -1.447200 -0.440262 2.471798
v -1.564400 -0.385361 2.394798
v -1.663400 -0.319359 2.288598
v -1.648700 -0.180161 2.251898
v -1.582800 -0.143562 2.262898
v -1.725700 -0.257065 2.218998
v -1.025800 -0.345062 2.537698
v -1.571800 -0.111465 2.362898
v -1.663400 -0.159164 2.263898
v -1.736700 -0.195763 2.289598
v -1.271300 -0.038261 2.502098
v -1.051500 0.031441 2.527798
v -1.278600 0.002037 2.491098
v -1.465500 -0.078560 2.443498
v -1.461900 -0.034561 2.417798
v -1.546100 -0.067566 2.348198
v -1.615700 -0.115166 2.256598
v -1.696400 -0.162766 2.175998
v -1.758600 -0.181160 2.183298
v -1.824600 -0.210464 2.208998
v -1.795300 -0.217766 2.329898
v -1.700000 -0.195763 2.454498
v -1.634100 -0.151863 2.403198
v -1.505800 -0.118866 2.491098
v -1.872200 -0.236061 2.223598
v -1.308000 -0.096863 2.568098
v -1.066100 -0.078560 2.611998
v -1.055100 -0.012566 2.542398
v -0.813300 -0.096863 2.579098
v -0.839000 -0.019859 2.535098
v -1.560800 -0.170166 2.560698
v -1.337300 -0.148163 2.663298
v -1.062500 -0.133461 2.714598
v -0.798600 -0.155464 2.655998
v -0.626400 -0.188461 2.564398
v -0.641100 -0.155464 2.538698
v -0.644800 -0.140862 2.502098
v -0.630100 -0.140862 2.465498
v -0.714400 -0.078560 2.443498
v -0.846300 0.031441 2.487498
vt 0.131000 0.184100
vt 0.131000 0.284200
vt 0.196700 0.184100
vt 0.355700 0.342800
vt 0.470200 0.405800
vt 0.470200 0.342800
vt 0.355700 0.405800
vt 0.275900 0.342800
vt 0.275900 0.405800
vt 0.196700 0.342800
vt 0.196700 0.405800
vt 0.186200 0.405800
vt 0.131000 0.342800
vt 0.196700 0.284200
vt 0.275900 0.184100
vt 0.275900 0.284200
vt 0.355700 0.284200
vt 0.470200 0.284200
vt 0.604000 0.284200
vt 0.604000 0.342800
vt 0.747100 0.284200
vt 0.747100 0.342800
vt 0.355700 0.184100
vt 0.470200 0.184100
vt 0.604000 0.184100
vt 0.747100 0.184100
vt 0.856000 0.184100
vt 0.856000 0.284200
vt 0.856000 0.342800
vt 0.856000 0.405800
vt 0.814000 0.405800
vt 0.723100 0.405800
vt 0.604000 0.405800
vt 0.344000 0.589400
vt 0.168000 0.589400
vt 0.334500 0.674800
vt 0.492700 0.674800
vt 0.334500 0.674800
vt 0.502400 0.589400
vt 0.590300 0.589400
vt 0.580600 0.674800
vt 0.662100 0.589400
vt 0.805700 0.674800
vt 0.805700 0.734100
vt 0.697800 0.734100
vt 0.745100 0.674800
vt 0.754900 0.589400
vt 0.652300 0.674800
vt 0.606400 0.734100
vt 0.492700 0.734100
vt 0.334500 0.734100
vt 0.158300 0.734100
vt 0.158300 0.674800
vt 0.073200 0.674800
vt 0.082800 0.589400
vt 0.073200 0.734100
vt 0.815400 0.589400
vt 0.697800 0.734100
vt 0.745100 0.674800
vt 0.606400 0.734100
vt 0.652300 0.674800
vt 0.580600 0.674800
vt 0.492700 0.734100
vt 0.492700 0.674800
vt 0.334500 0.734100
vt 0.334500 0.674800
vt 0.158300 0.734100
vt 0.158300 0.674800
vt 0.073200 0.674800
vt 0.073200 0.734100
vt 0.082800 0.589400
vt 0.168000 0.589400
vt 0.344000 0.589400
vt 0.502400 0.589400
vt 0.590300 0.589400
vt 0.662100 0.589400
vt 0.754900 0.589400
vt 0.805700 0.674800
vt 0.805700 0.734100
vt 0.815400 0.589400
vt 0.334500 0.674800
vt 0.275900 0.342800
vt 0.196700 0.342800
vt 0.196700 0.284200
vt 0.470200 0.342800
vt 0.604000 0.405800
vt 0.470200 0.405800
vt 0.355700 0.342800
vt 0.355700 0.405800
vt 0.275900 0.405800
vt 0.196700 0.405800
vt 0.186200 0.405800
vt 0.131000 0.342800
vt 0.131000 0.284200
vt 0.196700 0.184100
vt 0.275900 0.184100
vt 0.275900 0.284200
vt 0.355700 0.284200
vt 0.131000 0.184100
vt 0.470200 0.284200
vt 0.604000 0.284200
vt 0.604000 0.342800
vt 0.747100 0.284200
vt 0.747100 0.342800
vt 0.355700 0.184100
vt 0.470200 0.184100
vt 0.604000 0.184100
vt 0.747100 0.184100
vt 0.856000 0.184100
vt 0.856000 0.284200
vt 0.856000 0.342800
vt 0.856000 0.405800
vt 0.814000 0.405800
vt 0.723100 0.405800
vn 0.4289 0.8895 0.1578
vn 0.3745 0.9129 0.1625
vn 0.3125 0.9443 0.1026
vn 0.4541 0.6846 0.5702
vn 0.2647 0.2348 0.9353
vn 0.2541 0.5322 0.8076
vn 0.5233 0.4764 0.7065
vn 0.5921 0.7406 0.3178
vn 0.6773 0.5792 0.4536
vn 0.5206 0.8443 0.1268
vn 0.6586 0.7382 0.1457
vn 0.3684 0.9242 0.1004
vn 0.3287 0.9350 0.1331
vn 0.3673 0.9205 0.1338
vn 0.4246 0.8880 0.1766
vn 0.4534 0.8733 0.1782
vn 0.3541 0.8530 0.3834
vn 0.2206 0.8410 0.4940
vn 0.0177 0.8146 0.5797
vn 0.0364 0.5442 0.8381
vn -0.2608 0.6792 0.6860
vn -0.2995 0.6362 0.7110
vn 0.3412 0.8672 0.3628
vn 0.1998 0.8869 0.4164
vn -0.0176 0.8842 0.4667
vn -0.2767 0.8000 0.5324
vn -0.3907 0.7015 0.5960
vn -0.4448 0.7195 0.5333
vn -0.5424 0.8054 0.2388
vn -0.5425 0.8113 0.2180
vn -0.5634 0.7826 0.2648
vn -0.3366 0.6402 0.6906
vn -0.0063 0.3088 0.9511
vn 0.0757 -0.1319 0.9884
vn -0.0471 0.5179 0.8541
vn -0.0457 -0.3549 -0.9338
vn 0.2208 0.3850 0.8961
vn 0.0694 0.4373 0.8966
vn 0.2646 0.0983 0.9593
vn 0.4188 0.2186 0.8814
vn 0.3332 0.4252 0.8415
vn 0.5240 0.2926 0.7999
vn 0.4956 0.3611 0.7899
vn 0.3711 0.4192 0.8286
vn 0.3235 0.5125 0.7954
vn 0.4797 0.3903 0.7859
vn 0.5952 0.2648 0.7587
vn 0.3916 0.4418 0.8071
vn 0.2377 0.6118 0.7544
vn 0.1699 0.6633 0.7288
vn 0.0714 0.7239 0.6862
vn -0.0374 0.7619 0.6466
vn -0.0251 0.6464 0.7626
vn -0.0965 0.7176 0.6897
vn -0.0502 0.5540 0.8310
vn -0.1696 0.8699 0.4632
vn 0.5895 0.2636 0.7636
vn -0.3235 0.5125 0.7954
vn -0.4797 0.3903 0.7859
vn -0.2377 0.6118 0.7544
vn -0.3916 0.4418 0.8071
vn -0.3332 0.4252 0.8415
vn -0.1699 0.6633 0.7288
vn -0.2208 0.3850 0.8961
vn -0.0714 0.7239 0.6862
vn -0.0694 0.4373 0.8966
vn 0.0374 0.7619 0.6466
vn 0.0251 0.6464 0.7626
vn 0.0965 0.7176 0.6897
vn 0.1696 0.8699 0.4632
vn 0.0502 0.5540 0.8310
vn 0.0471 0.5179 0.8541
vn -0.0757 -0.1319 0.9884
vn -0.2646 0.0983 0.9593
vn -0.4188 0.2186 0.8814
vn -0.5240 0.2926 0.7999
vn -0.5952 0.2648 0.7587
vn -0.4956 0.3611 0.7899
vn -0.3711 0.4192 0.8286
vn -0.5895 0.2636 0.7636
vn 0.0457 -0.3549 -0.9338
vn -0.5921 0.7406 0.3178
vn -0.5206 0.8443 0.1268
vn -0.3673 0.9205 0.1338
vn -0.2541 0.5322 0.8076
vn 0.0063 0.3088 0.9511
vn -0.2647 0.2348 0.9353
vn -0.4541 0.6846 0.5702
vn -0.5233 0.4764 0.7065
vn -0.6773 0.5792 0.4536
vn -0.6586 0.7382 0.1457
vn -0.3684 0.9242 0.1004
vn -0.3287 0.9350 0.1331
vn -0.3744 0.9129 0.1625
vn -0.3125 0.9443 0.1026
vn -0.4246 0.8880 0.1766
vn -0.4534 0.8733 0.1782
vn -0.3541 0.8530 0.3834
vn -0.4289 0.8895 0.1578
vn -0.2206 0.8410 0.4940
vn -0.0177 0.8146 0.5797
vn -0.0364 0.5442 0.8381
vn 0.2608 0.6792 0.6860
vn 0.2995 0.6362 0.7110
vn -0.3412 0.8672 0.3628
vn -0.1998 0.8869 0.4164
vn 0.0176 0.8842 0.4667
vn 0.2767 0.8000 0.5324
vn 0.3907 0.7015 0.5960
vn 0.4448 0.7196 0.5333
vn 0.5424 0.8054 0.2388
vn 0.5425 0.8113 0.2180
vn 0.5634 0.7826 0.2648
vn 0.3366 0.6402 0.6906
usemtl Sam_Eyelid
s 1
f 1/1/1 2/2/2 3/3/3
f 4/4/4 5/5/5 6/6/6
f 4/4/4 7/7/7 5/5/5
f 8/8/8 7/7/7 4/4/4
f 8/8/8 9/9/9 7/7/7
f 10/10/10 9/9/9 8/8/8
f 10/10/10 11/11/11 9/9/9
f 12/12/12 11/11/11 10/10/10
f 10/10/10 13/13/13 12/12/12
f 2/2/2 13/13/13 10/10/10
f 2/2/2 10/10/10 14/14/14
f 3/3/3 2/2/2 14/14/14
f 3/3/3 14/14/14 15/15/15
f 15/15/15 14/14/14 16/16/16
f 15/15/15 16/16/16 17/17/17
f 17/17/17 16/16/16 4/4/4
f 17/17/17 4/4/4 6/6/6
f 17/17/17 6/6/6 18/18/18
f 18/18/18 6/6/6 19/19/19
f 6/6/6 20/20/20 19/19/19
f 19/19/19 20/20/20 21/21/21
f 20/20/20 22/22/22 21/21/21
f 16/16/16 8/8/8 4/4/4
f 14/14/14 8/8/8 16/16/16
f 14/14/14 10/10/10 8/8/8
f 15/15/15 17/17/17 23/23/23
f 23/23/23 17/17/17 18/18/18
f 23/23/23 18/18/18 24/24/24
f 24/24/24 18/18/18 25/25/25
f 18/18/18 19/19/19 25/25/25
f 25/25/25 19/19/19 26/26/26
f 19/19/19 21/21/21 26/26/26
f 26/26/26 21/21/21 27/27/27
f 21/21/21 28/28/28 27/27/27
f 21/21/21 22/22/22 28/28/28
f 22/22/22 29/29/29 28/28/28
f 22/22/22 30/30/30 29/29/29
f 31/31/31 30/30/30 22/22/22
f 22/22/22 32/32/32 31/31/31
f 20/20/20 32/32/32 22/22/22
f 20/20/20 33/33/33 32/32/32
f 6/6/6 33/33/33 20/20/20
f 6/6/6 5/5/5 33/33/33
f 34/34/34 35/35/35 36/36/36
f 37/37/37 38/38/38 34/34/34
f 39/39/39 37/37/37 34/34/34
f 40/40/40 37/37/37 39/39/39
f 41/41/41 37/37/37 40/40/40
f 42/42/42 41/41/41 40/40/40
f 43/43/43 44/44/44 45/45/45
f 46/46/46 43/43/43 45/45/45
f 47/47/47 43/43/43 46/46/46
f 46/46/46 48/48/48 47/47/47
f 47/47/47 48/48/48 42/42/42
f 48/48/48 41/41/41 42/42/42
f 48/48/48 49/49/49 41/41/41
f 49/49/49 50/50/50 41/41/41
f 41/41/41 50/50/50 37/37/37
f 50/50/50 51/51/51 37/37/37
f 37/37/37 51/51/51 38/38/38
f 51/51/51 52/52/52 38/38/38
f 52/52/52 53/53/53 38/38/38
f 53/53/53 52/52/52 54/54/54
f 55/55/55 53/53/53 54/54/54
f 35/35/35 53/53/53 55/55/55
f 38/38/38 53/53/53 35/35/35
f 34/34/34 38/38/38 35/35/35
f 46/46/46 49/49/49 48/48/48
f 45/45/45 49/49/49 46/46/46
f 54/54/54 52/52/52 56/56/56
f 57/57/57 43/43/43 47/47/47
f 58/58/58 59/59/59 60/60/60
f 60/60/60 59/59/59 61/61/61
f 61/61/61 62/62/62 60/60/60
f 60/60/60 62/62/62 63/63/63
f 62/62/62 64/64/64 63/63/63
f 63/63/63 64/64/64 65/65/65
f 64/64/64 66/66/66 65/65/65
f 65/65/65 66/66/66 67/67/67
f 66/66/66 68/68/68 67/67/67
f 67/67/67 69/69/69 70/70/70
f 68/68/68 69/69/69 67/67/67
f 68/68/68 71/71/71 69/69/69
f 72/72/72 71/71/71 68/68/68
f 66/66/66 72/72/72 68/68/68
f 73/73/73 72/72/72 66/66/66
f 64/64/64 73/73/73 66/66/66
f 74/74/74 73/73/73 64/64/64
f 75/75/75 74/74/74 64/64/64
f 62/62/62 75/75/75 64/64/64
f 76/76/76 75/75/75 62/62/62
f 76/76/76 62/62/62 61/61/61
f 77/77/77 76/76/76 61/61/61
f 59/59/59 77/77/77 61/61/61
f 77/77/77 59/59/59 78/78/78
f 59/59/59 58/58/58 78/78/78
f 78/78/78 58/58/58 79/79/79
f 80/80/80 77/77/77 78/78/78
f 73/73/73 81/81/81 72/72/72
f 82/82/82 83/83/83 84/84/84
f 85/85/85 86/86/86 87/87/87
f 88/88/88 85/85/85 87/87/87
f 87/87/87 89/89/89 88/88/88
f 88/88/88 89/89/89 82/82/82
f 89/89/89 90/90/90 82/82/82
f 82/82/82 90/90/90 83/83/83
f 90/90/90 91/91/91 83/83/83
f 83/83/83 91/91/91 92/92/92
f 83/83/83 92/92/92 93/93/93
f 83/83/83 93/93/93 94/94/94
f 84/84/84 83/83/83 94/94/94
f 94/94/94 95/95/95 84/84/84
f 95/95/95 96/96/96 84/84/84
f 84/84/84 96/96/96 97/97/97
f 97/97/97 82/82/82 84/84/84
f 88/88/88 82/82/82 97/97/97
f 97/97/97 98/98/98 88/88/88
f 98/98/98 85/85/85 88/88/88
f 99/99/99 95/95/95 94/94/94
f 98/98/98 100/100/100 85/85/85
f 85/85/85 100/100/100 101/101/101
f 102/102/102 85/85/85 101/101/101
f 102/102/102 101/101/101 103/103/103
f 102/102/102 103/103/103 104/104/104
f 96/96/96 98/98/98 97/97/97
f 96/96/96 105/105/105 98/98/98
f 98/98/98 105/105/105 100/100/100
f 105/105/105 106/106/106 100/100/100
f 100/100/100 106/106/106 107/107/107
f 100/100/100 107/107/107 101/101/101
f 101/101/101 107/107/107 108/108/108
f 103/103/103 101/101/101 108/108/108
f 108/108/108 109/109/109 103/103/103
f 103/103/103 109/109/109 110/110/110
f 104/104/104 103/103/103 110/110/110
f 111/111/111 104/104/104 110/110/110
f 104/104/104 111/111/111 112/112/112
f 113/113/113 104/104/104 112/112/112
f 114/114/114 104/104/104 113/113/113
f 114/114/114 102/102/102 104/104/104
f 86/86/86 102/102/102 114/114/114
f 86/86/86 85/85/85 102/102/102
