# Blender v2.92.0 OBJ File: ''
# www.blender.org
mtllib sampelvis.mtl
o Sam_Body_1.010
v -0.820800 5.627541 5.691800
v 0.000000 5.550541 5.765100
v 0.000000 1.256241 4.299500
v 0.820800 5.627537 5.691800
v -2.594200 4.018944 4.603600
v -3.700800 4.557541 4.358100
v -3.448000 6.298042 4.632901
v -2.308400 6.298042 4.948000
v -2.169200 3.209141 4.673200
v -1.546300 5.840042 5.402400
v -1.762400 2.146542 4.537600
v -1.502300 1.256241 4.299500
v -1.242100 0.453743 3.878100
v 0.000000 0.453743 3.878100
v -1.036900 -0.418358 3.028000
v 0.000000 -0.462257 3.028000
v -0.765800 -0.641857 1.811500
v 0.000000 -0.685757 1.811500
v 0.765800 -0.641857 1.811500
v 1.036900 -0.418358 3.028000
v 1.242100 0.453743 3.878100
v 1.502300 1.256241 4.299500
v 1.762400 2.146542 4.537600
v 1.546300 5.840042 5.402400
v 2.169200 3.209141 4.673200
v 2.308400 6.298042 4.948000
v 2.594200 4.018944 4.603600
v 3.448000 6.298042 4.632900
v 3.700800 4.557541 4.358100
v 1.568200 5.741142 5.757801
v 0.872100 5.499241 6.032600
v 0.000000 5.422340 6.157200
v 3.349000 6.195442 4.929700
v 2.312100 6.188141 5.332700
v 1.652500 5.250141 6.043600
v 0.945300 4.784740 6.736100
v 0.000000 4.663841 7.076900
v -0.945300 4.784740 6.736100
v -0.872100 5.499241 6.032600
v -1.568200 5.741142 5.757801
v -2.312100 6.188141 5.332700
v -3.349000 6.195442 4.929700
v -1.652500 5.250141 6.043600
v -3.561500 4.671143 4.658500
v -2.509900 4.165543 4.995600
v -2.048300 3.374043 5.636900
v -1.029600 3.242142 6.476000
v 0.000000 3.212841 6.827700
v 1.029600 3.242142 6.476000
v 0.883100 2.033043 6.146200
v 1.597600 2.065941 5.647900
v 1.289800 0.944744 5.241100
v 1.102900 0.160641 4.669500
v 0.941700 -0.502556 3.988000
v 0.798800 -0.784760 3.170900
v 0.589900 -1.008259 1.903100
v 0.000000 2.000042 6.450300
v 0.000000 -0.630859 4.046600
v 0.000000 -0.843357 3.170900
v 0.564300 -0.586857 4.032000
v 0.626600 0.032341 5.036000
v 0.729200 0.875141 5.710200
v 0.000000 0.856842 5.911700
v -0.883100 2.033043 6.146200
v -1.597600 2.065941 5.647900
v 0.000000 0.010441 5.193500
v 0.000000 -1.063156 1.903100
v -0.798800 -0.784760 3.170900
v -0.564300 -0.586857 4.032000
v -0.626600 0.032341 5.036000
v -0.729200 0.875141 5.710200
v -1.289800 0.944744 5.241100
v -0.941700 -0.502556 3.988000
v -1.102900 0.160641 4.669500
v -0.589900 -1.008259 1.903100
v 3.561500 4.671143 4.658500
v 2.048300 3.374043 5.636900
v 2.509900 4.165543 4.995600
vt 1.341800 0.893200
vt 1.347700 0.893600
vt 1.347700 0.923100
vt 1.353500 0.893200
vt 1.329100 0.905200
vt 1.322300 0.902200
vt 1.323200 0.890600
vt 1.331100 0.890100
vt 1.333000 0.910300
vt 1.336900 0.892500
vt 1.335000 0.917200
vt 1.337900 0.923200
vt 1.338900 0.929100
vt 1.347700 0.928900
vt 1.340800 0.937000
vt 1.347700 0.937000
vt 1.342800 0.945000
vt 1.347700 0.945000
vt 1.352500 0.945000
vt 1.354500 0.937000
vt 1.356400 0.929100
vt 1.357400 0.923200
vt 1.360400 0.917200
vt 1.358400 0.892500
vt 1.362300 0.910300
vt 1.364300 0.890100
vt 1.366200 0.905200
vt 1.372100 0.890600
vt 1.373000 0.902200
vt 1.284200 0.491200
vt 1.268600 0.496600
vt 1.266600 0.503200
vt 1.252000 0.498500
vt 1.252000 0.505600
vt 1.238300 0.505600
vt 1.238300 0.498500
vt 1.223600 0.498500
vt 1.297900 0.498500
vt 1.305700 0.491200
vt 1.281300 0.498500
vt 1.265600 0.512000
vt 1.252000 0.519000
vt 1.238300 0.520500
vt 1.223600 0.519000
vt 1.223600 0.505600
vt 1.209000 0.503200
vt 1.208000 0.496600
vt 1.192400 0.491200
vt 1.195300 0.498500
vt 1.177700 0.498500
vt 1.170900 0.491200
vt 1.210000 0.512000
vt 1.173800 0.521700
vt 1.190400 0.529500
vt 1.165000 0.524700
vt 1.182600 0.536400
vt 1.202100 0.541500
vt 1.220700 0.542500
vt 1.238300 0.542500
vt 1.255900 0.542500
vt 1.252900 0.561800
vt 1.264600 0.562700
vt 1.259800 0.582000
vt 1.277300 0.584200
vt 1.255900 0.597700
vt 1.270500 0.599400
vt 1.252900 0.612300
vt 1.258800 0.626200
vt 1.249000 0.625700
vt 1.247100 0.645500
vt 1.238300 0.561300
vt 1.252000 0.650600
vt 1.238300 0.612300
vt 1.238300 0.625700
vt 1.247100 0.612300
vt 1.248000 0.596400
vt 1.250000 0.580600
vt 1.238300 0.579800
vt 1.222700 0.561800
vt 1.210900 0.562700
vt 1.238300 0.595500
vt 1.238300 0.645500
vt 1.226600 0.625700
vt 1.229500 0.612300
vt 1.227500 0.596400
vt 1.225600 0.580600
vt 1.216800 0.582000
vt 1.199200 0.584200
vt 1.194300 0.566900
vt 1.188500 0.549300
vt 1.223600 0.612300
vt 1.219700 0.597700
vt 1.205100 0.599400
vt 1.217800 0.626200
vt 1.229500 0.645500
vt 1.224600 0.650600
vt 1.302700 0.521700
vt 1.311500 0.524700
vt 1.238300 0.650600
vt 1.273400 0.541500
vt 1.286100 0.529500
vt 1.282200 0.566900
vt 1.288100 0.549300
vt 1.293000 0.536400
vn 0.2415 0.2601 -0.9349
vn 0.0000 0.3230 -0.9464
vn 0.0000 0.3867 -0.9222
vn -0.2415 0.2601 -0.9349
vn 0.3157 0.1032 -0.9432
vn 0.2670 0.1123 -0.9571
vn 0.2655 0.1118 -0.9576
vn 0.3923 0.1066 -0.9136
vn 0.2784 0.1841 -0.9427
vn 0.4769 0.1426 -0.8673
vn 0.1449 0.2705 -0.9517
vn 0.0148 0.3692 -0.9292
vn 0.0000 0.5713 -0.8207
vn -0.0000 0.5831 -0.8124
vn 0.0277 0.8593 -0.5107
vn -0.0000 0.8799 -0.4752
vn 0.0500 0.9830 -0.1766
vn 0.0000 0.9835 -0.1807
vn -0.0500 0.9830 -0.1766
vn -0.0277 0.8593 -0.5107
vn -0.0148 0.3692 -0.9292
vn -0.1449 0.2705 -0.9517
vn -0.4769 0.1426 -0.8673
vn -0.2784 0.1841 -0.9427
vn -0.3923 0.1066 -0.9136
vn -0.3157 0.1032 -0.9432
vn -0.2655 0.1118 -0.9576
vn -0.2670 0.1123 -0.9571
vn -0.0714 0.9562 0.2839
vn -0.3000 0.9141 0.2729
vn -0.0304 0.7734 0.6332
vn -0.1107 0.9318 0.3456
vn 0.0287 0.8102 0.5855
vn 0.0000 0.8487 0.5288
vn 0.0000 0.9505 0.3108
vn 0.1107 0.9318 0.3456
vn 0.0982 0.9350 0.3408
vn 0.0979 0.9300 0.3542
vn -0.1816 0.9230 0.3393
vn 0.1800 0.5876 0.7889
vn 0.1292 0.7287 0.6725
vn 0.0000 0.7715 0.6363
vn -0.1292 0.7287 0.6725
vn -0.0287 0.8102 0.5855
vn 0.0304 0.7734 0.6332
vn 0.3000 0.9141 0.2729
vn 0.0714 0.9562 0.2839
vn 0.1816 0.9230 0.3393
vn -0.0982 0.9350 0.3408
vn -0.0979 0.9300 0.3542
vn -0.1800 0.5876 0.7889
vn -0.3606 -0.1144 0.9257
vn -0.4656 -0.4626 0.7544
vn -0.5364 -0.0858 0.8396
vn -0.7465 -0.2768 0.6051
vn -0.4937 -0.7291 0.4739
vn -0.7407 -0.0113 0.6718
vn -0.7162 -0.6096 0.3399
vn -0.8281 -0.2115 0.5191
vn -0.5406 -0.0851 0.8370
vn -0.4882 -0.1948 0.8507
vn -0.0000 -0.1552 0.9879
vn -0.0000 -0.2327 0.9725
vn 0.4882 -0.1948 0.8507
vn 0.4383 -0.3397 0.8322
vn 0.7945 -0.3430 0.5010
vn 0.8002 -0.4171 0.4309
vn 0.9454 -0.3107 0.0983
vn 0.7835 -0.5271 0.3292
vn 0.9497 -0.3084 0.0552
vn 0.6430 -0.6887 0.3351
vn 0.8783 -0.4781 0.0051
vn 0.5120 -0.8504 0.1211
vn 0.5268 -0.8489 0.0427
vn 0.5406 -0.0851 0.8370
vn -0.0000 -0.3591 0.9333
vn 0.8842 -0.4530 -0.1138
vn -0.0000 -0.9301 0.3673
vn -0.0000 -0.9792 0.2031
vn 0.1859 -0.8950 0.4055
vn 0.3744 -0.7135 0.5923
vn 0.4244 -0.4845 0.7649
vn -0.0000 -0.5185 0.8551
vn -0.4383 -0.3397 0.8322
vn -0.7945 -0.3430 0.5010
vn -0.0000 -0.7535 0.6574
vn 0.0000 -0.9866 0.1632
vn -0.5120 -0.8504 0.1211
vn -0.1859 -0.8950 0.4055
vn -0.3744 -0.7135 0.5923
vn -0.4244 -0.4845 0.7649
vn -0.8002 -0.4171 0.4309
vn -0.9454 -0.3107 0.0983
vn -0.9373 -0.3240 0.1286
vn -0.8959 -0.4055 0.1818
vn -0.6430 -0.6887 0.3351
vn -0.7835 -0.5271 0.3292
vn -0.9497 -0.3084 0.0552
vn -0.8783 -0.4781 0.0051
vn -0.5268 -0.8489 0.0427
vn -0.8842 -0.4530 -0.1138
vn 0.9137 0.0557 0.4026
vn 0.9181 0.0605 0.3917
vn 0.9344 0.0796 0.3471
vn 0.9365 0.0822 0.3408
vn -0.0143 -0.2490 -0.9684
vn 0.0000 -0.2405 -0.9707
vn -0.0165 -0.2452 -0.9693
vn 0.0000 -0.2359 -0.9718
vn 0.0165 -0.2452 -0.9693
vn 0.0143 -0.2490 -0.9684
vn 0.8281 -0.2115 0.5191
vn 0.7407 -0.0113 0.6718
vn 0.7465 -0.2768 0.6051
vn 0.5364 -0.0858 0.8396
vn 0.9373 -0.3240 0.1286
vn 0.8959 -0.4055 0.1818
vn 0.7162 -0.6096 0.3399
vn 0.4937 -0.7291 0.4739
vn 0.4656 -0.4626 0.7544
vn 0.3606 -0.1144 0.9257
vn -0.9181 0.0605 0.3917
vn -0.9344 0.0796 0.3471
vn -0.9365 0.0822 0.3408
vn -0.9137 0.0557 0.4026
usemtl Sam_Body2_D
s 1
f 1/1/1 2/2/2 3/3/3
f 2/2/2 4/4/4 3/3/3
f 5/5/5 6/6/6 7/7/7
f 8/8/8 5/5/5 7/7/7
f 9/9/9 5/5/5 8/8/8
f 10/10/10 9/9/9 8/8/8
f 11/11/11 9/9/9 10/10/10
f 1/1/1 11/11/11 10/10/10
f 12/12/12 11/11/11 1/1/1
f 12/12/12 1/1/1 3/3/3
f 13/13/13 12/12/12 3/3/3
f 14/14/14 13/13/13 3/3/3
f 15/15/15 13/13/13 14/14/14
f 16/16/16 15/15/15 14/14/14
f 17/17/17 15/15/15 16/16/16
f 18/18/18 17/17/17 16/16/16
f 19/19/19 18/18/18 16/16/16
f 20/20/20 19/19/19 16/16/16
f 14/14/14 20/20/20 16/16/16
f 21/21/13 20/20/20 14/14/14
f 3/3/3 21/21/13 14/14/14
f 22/22/21 21/21/13 3/3/3
f 3/3/3 4/4/4 22/22/21
f 22/22/21 4/4/4 23/23/22
f 4/4/4 24/24/23 23/23/22
f 23/23/22 24/24/23 25/25/24
f 24/24/23 26/26/25 25/25/24
f 25/25/24 26/26/25 27/27/26
f 26/26/25 28/28/27 27/27/26
f 27/27/26 28/28/27 29/29/28
f 26/30/29 24/31/30 30/32/31
f 24/31/30 4/33/32 30/32/31
f 30/32/31 4/33/32 31/34/33
f 31/34/33 4/33/32 32/35/34
f 4/33/32 2/36/35 32/35/34
f 2/36/35 1/37/36 32/35/34
f 33/38/37 28/39/38 26/30/29
f 26/30/29 34/40/39 33/38/37
f 34/40/39 26/30/29 30/32/31
f 35/41/40 34/40/39 30/32/31
f 31/34/33 35/41/40 30/32/31
f 36/42/41 35/41/40 31/34/33
f 32/35/34 36/42/41 31/34/33
f 32/35/34 37/43/42 36/42/41
f 37/43/42 32/35/34 38/44/43
f 38/44/43 32/35/34 39/45/44
f 32/35/34 1/37/36 39/45/44
f 39/45/44 1/37/36 40/46/45
f 1/37/36 10/47/46 40/46/45
f 10/47/46 8/48/47 40/46/45
f 8/48/47 41/49/48 40/46/45
f 8/48/47 42/50/49 41/49/48
f 7/51/50 42/50/49 8/48/47
f 40/46/45 41/49/48 43/52/51
f 43/52/51 39/45/44 40/46/45
f 38/44/43 39/45/44 43/52/51
f 42/50/52 44/53/53 41/49/54
f 45/54/55 44/53/53 6/55/56
f 41/49/54 44/53/53 45/54/55
f 41/49/54 45/54/55 43/52/57
f 6/55/56 5/56/58 45/54/55
f 45/54/55 5/56/58 46/57/59
f 45/54/55 46/57/59 43/52/57
f 46/57/59 38/44/60 43/52/57
f 46/57/59 47/58/61 38/44/60
f 47/58/61 37/43/62 38/44/60
f 48/59/63 37/43/62 47/58/61
f 37/43/62 48/59/63 49/60/64
f 49/60/64 48/59/63 50/61/65
f 49/60/64 50/61/65 51/62/66
f 51/62/66 50/61/65 52/63/67
f 52/63/67 22/64/68 51/62/66
f 53/65/69 22/64/68 52/63/67
f 21/66/70 22/64/68 53/65/69
f 54/67/71 21/66/70 53/65/69
f 20/68/72 21/66/70 54/67/71
f 55/69/73 20/68/72 54/67/71
f 56/70/74 20/68/72 55/69/73
f 36/42/75 37/43/62 49/60/64
f 48/59/63 57/71/76 50/61/65
f 19/72/77 20/68/72 56/70/74
f 58/73/78 59/74/79 55/69/73
f 58/73/78 55/69/73 60/75/80
f 55/69/73 54/67/71 60/75/80
f 60/75/80 54/67/71 53/65/69
f 61/76/81 60/75/80 53/65/69
f 52/63/67 61/76/81 53/65/69
f 62/77/82 61/76/81 52/63/67
f 50/61/65 62/77/82 52/63/67
f 50/61/65 63/78/83 62/77/82
f 57/71/76 63/78/83 50/61/65
f 63/78/83 57/71/76 64/79/84
f 57/71/76 48/59/63 64/79/84
f 64/79/84 48/59/63 47/58/61
f 64/79/84 47/58/61 65/80/85
f 65/80/85 47/58/61 46/57/59
f 62/77/82 63/78/83 61/76/81
f 63/78/83 66/81/86 61/76/81
f 61/76/81 66/81/86 60/75/80
f 66/81/86 58/73/78 60/75/80
f 55/69/73 67/82/87 56/70/74
f 59/74/79 67/82/87 55/69/73
f 67/82/87 59/74/79 68/83/88
f 68/83/88 59/74/79 58/73/78
f 58/73/78 69/84/89 68/83/88
f 58/73/78 66/81/86 69/84/89
f 69/84/89 66/81/86 70/85/90
f 66/81/86 63/78/83 70/85/90
f 70/85/90 63/78/83 71/86/91
f 71/86/91 63/78/83 64/79/84
f 71/86/91 64/79/84 72/87/92
f 72/87/92 64/79/84 65/80/85
f 65/80/85 12/88/93 72/87/92
f 11/89/94 12/88/93 65/80/85
f 46/57/59 11/89/94 65/80/85
f 9/90/95 11/89/94 46/57/59
f 5/56/58 9/90/95 46/57/59
f 68/83/88 69/84/89 73/91/96
f 73/91/96 69/84/89 74/92/97
f 69/84/89 70/85/90 74/92/97
f 70/85/90 71/86/91 72/87/92
f 74/92/97 70/85/90 72/87/92
f 72/87/92 12/88/93 74/92/97
f 12/88/93 13/93/98 74/92/97
f 74/92/97 13/93/98 73/91/96
f 13/93/98 15/94/99 73/91/96
f 73/91/96 15/94/99 68/83/88
f 68/83/88 15/94/99 75/95/100
f 75/95/100 67/82/87 68/83/88
f 15/94/99 17/96/101 75/95/100
f 76/97/102 29/98/103 33/38/104
f 29/98/103 28/39/105 33/38/104
f 17/96/106 18/99/107 75/95/108
f 18/99/107 67/82/109 75/95/108
f 67/82/109 18/99/107 56/70/110
f 18/99/107 19/72/111 56/70/110
f 77/100/112 49/60/64 51/62/66
f 36/42/75 49/60/64 77/100/112
f 35/41/113 36/42/75 77/100/112
f 78/101/114 35/41/113 77/100/112
f 34/40/115 35/41/113 78/101/114
f 22/64/68 23/102/116 51/62/66
f 51/62/66 23/102/116 77/100/112
f 23/102/116 25/103/117 77/100/112
f 25/103/117 27/104/118 77/100/112
f 77/100/112 27/104/118 78/101/114
f 27/104/118 29/98/119 78/101/114
f 78/101/114 29/98/119 76/97/120
f 76/97/120 34/40/115 78/101/114
f 33/38/121 34/40/115 76/97/120
f 6/55/122 42/50/123 7/51/124
f 44/53/125 42/50/123 6/55/122
