# Blender v2.92.0 OBJ File: ''
# www.blender.org
mtllib samupperarm3.mtl
o Sam_Body_1.008
v 3.669284 -0.353537 -6.172599
v 2.353885 0.514860 -5.923498
v 3.669283 0.437864 -6.172598
v 2.584684 1.068063 -5.817199
v 2.108385 1.335561 -5.622999
v 1.873884 1.013162 -5.637700
v 1.228984 1.306260 -5.373900
v 1.228984 1.383256 -5.051401
v 1.892185 1.075460 -5.282200
v 1.892185 0.591760 -6.146999
v 2.416184 -0.353541 -6.033399
v 3.669283 -1.145037 -6.172599
v 2.353885 -1.225638 -5.923499
v 2.584684 -1.778941 -5.817198
v 1.873886 -1.720336 -5.637700
v 2.108384 -2.042735 -5.623000
v 1.947183 -0.353541 -6.370500
v 1.892185 -1.302638 -6.146999
v 1.228984 -2.017039 -5.373899
v 1.228984 -2.090338 -5.055100
v 1.892183 -1.782641 -5.282200
v 1.283983 0.668760 -6.256899
v 0.620784 0.698064 -6.267900
v 0.558483 1.368562 -5.311604
v 0.078485 1.057161 -5.721903
v -0.009514 0.558763 -6.191003
v 0.642685 -0.353537 -6.535400
v -0.009514 -0.353541 -6.410803
v 0.620784 -1.405135 -6.267901
v -0.009514 -1.265940 -6.191002
v 0.078485 -1.764235 -5.721901
v 0.558485 -2.079337 -5.311601
v 1.283983 -1.379538 -6.256899
v 1.309583 -0.353537 -6.520700
v 0.488784 -2.156340 -4.959801
v -0.060814 -1.830241 -5.359200
v -0.331915 -1.584738 -5.758603
v -0.606715 -1.101035 -6.114003
v -0.606715 -0.353537 -6.249603
v -0.606715 0.390264 -6.114003
v -0.331917 0.877561 -5.758603
v -0.060814 1.123060 -5.359203
v 0.488784 1.449159 -4.959803
v 2.126685 1.401559 -5.370199
v 2.661684 1.119359 -5.582698
v 3.738883 0.459863 -6.022399
v 3.738883 -0.353537 -6.022399
v 3.738884 -1.170638 -6.022398
v 2.126685 -2.108737 -5.370200
v 2.661684 -1.826541 -5.582698
v 0.565784 -0.353537 -5.930801
v 1.254684 -0.353541 -5.839200
v 1.947183 -0.353537 -5.798900
v 2.544384 -0.353541 -5.846498
v 2.427184 0.573461 -5.560699
v -0.390515 -0.353541 -5.938103
v 2.427184 -1.284239 -5.560699
vt 1.902300 0.049800
vt 1.928700 0.034700
vt 1.902300 0.037100
vt 1.923800 0.025400
vt 1.930700 0.019500
vt 1.936500 0.023900
vt 1.950200 0.016100
vt 1.950200 0.011200
vt 1.937500 0.018100
vt 1.937500 0.034200
vt 1.927700 0.049800
vt 1.902300 0.062000
vt 1.928700 0.064900
vt 1.923800 0.074200
vt 1.936500 0.075700
vt 1.930700 0.079600
vt 1.937500 0.049800
vt 1.937500 0.065400
vt 1.950200 0.083500
vt 1.950200 0.088400
vt 1.937500 0.081100
vt 1.951200 0.033200
vt 1.964800 0.032200
vt 1.963900 0.013700
vt 1.975600 0.022000
vt 1.977500 0.033700
vt 1.964800 0.049800
vt 1.978500 0.049800
vt 1.964800 0.066900
vt 1.977500 0.065400
vt 1.975600 0.077100
vt 1.963900 0.085400
vt 1.951200 0.066400
vt 1.951200 0.049800
vt 1.964800 0.091300
vt 1.977500 0.083000
vt 1.987300 0.074700
vt 1.991200 0.063500
vt 1.992200 0.049800
vt 1.991200 0.035600
vt 1.987300 0.024900
vt 1.977500 0.016100
vt 1.964800 0.008300
vt 1.930700 0.014600
vt 1.921900 0.021500
vt 1.897500 0.036100
vt 1.897500 0.049800
vt 1.897500 0.063500
vt 1.930700 0.085000
vt 1.921900 0.078100
vt 1.842800 0.030300
vt 1.838900 0.043000
vt 1.843800 0.046400
vt 1.848600 0.045400
vt 1.848600 0.030300
vt 1.853500 0.042500
vt 1.854500 0.030300
vt 1.859400 0.030300
vt 1.857400 0.022900
vt 1.853500 0.018600
vt 1.848600 0.015600
vt 1.843800 0.014200
vt 1.838900 0.018100
vt 1.835900 0.021000
vt 1.835900 0.030300
vt 1.835900 0.040000
vt 1.857400 0.038100
vt 1.855500 0.044900
vt 1.860400 0.042500
vt 1.869100 0.036600
vt 1.869100 0.030300
vt 1.869100 0.024400
vt 1.860400 0.018600
vt 1.855500 0.016100
vt 1.833000 0.036100
vt 1.833000 0.030300
vt 1.833000 0.024900
vn -0.1344 0.0216 -0.9907
vn 0.0826 0.2836 -0.9554
vn -0.1826 0.0562 -0.9816
vn -0.1998 0.2646 -0.9434
vn -0.2620 0.2617 -0.9289
vn 0.0767 0.7152 -0.6947
vn 0.1642 0.9064 -0.3891
vn 0.1776 0.9572 -0.2285
vn 0.3459 0.9192 -0.1883
vn 0.3293 0.5051 -0.7978
vn 0.2210 0.0266 -0.9749
vn -0.1435 -0.0891 -0.9856
vn 0.0857 -0.3137 -0.9456
vn -0.2160 -0.2603 -0.9411
vn 0.0926 -0.7139 -0.6942
vn -0.2560 -0.2291 -0.9391
vn 0.3997 0.0123 -0.9166
vn 0.3171 -0.5171 -0.7950
vn 0.1606 -0.9076 -0.3879
vn 0.1767 -0.9601 -0.2167
vn 0.3630 -0.9144 -0.1790
vn 0.1257 0.5606 -0.8185
vn -0.0663 0.5570 -0.8279
vn -0.0964 0.9225 -0.3737
vn -0.2383 0.8268 -0.5095
vn -0.2348 0.4744 -0.8484
vn -0.0790 -0.0017 -0.9969
vn -0.2147 0.0056 -0.9767
vn -0.0684 -0.5545 -0.8294
vn -0.2212 -0.4751 -0.8517
vn -0.2368 -0.8281 -0.5081
vn -0.0986 -0.9238 -0.3700
vn 0.1237 -0.5604 -0.8189
vn 0.1228 -0.0001 -0.9924
vn -0.1273 -0.9625 -0.2397
vn -0.3459 -0.8924 -0.2898
vn -0.2862 -0.7447 -0.6030
vn -0.2423 -0.3860 -0.8901
vn -0.2455 0.0184 -0.9692
vn -0.2144 0.3696 -0.9041
vn -0.2623 0.7287 -0.6326
vn -0.3428 0.8934 -0.2904
vn -0.1241 0.9607 -0.2483
vn -0.8103 0.5808 -0.0776
vn -0.8127 0.5783 -0.0716
vn -0.8179 0.5724 -0.0582
vn -0.8029 0.5884 -0.0955
vn 0.3781 0.8730 -0.3082
vn 0.3906 0.8834 -0.2589
vn 0.3774 0.8848 -0.2734
vn 0.3687 0.8755 -0.3123
vn 0.3998 0.8617 -0.3125
vn 0.4003 0.8617 -0.3117
vn 0.9073 0.0000 -0.4204
vn 0.3814 -0.8748 -0.2986
vn 0.3750 -0.8868 -0.2700
vn 0.3849 -0.8858 -0.2591
vn 0.3737 -0.8774 -0.3008
vn 0.3947 -0.8589 -0.3262
vn 0.3939 -0.8583 -0.3288
vn -0.8137 -0.5762 -0.0765
vn -0.8113 -0.5803 -0.0718
vn -0.8058 -0.5889 -0.0617
vn -0.8198 -0.5657 -0.0884
vn -0.1569 -0.0132 0.9875
vn -0.4130 0.4758 0.7766
vn -0.0893 0.4753 0.8753
vn 0.0665 0.4405 0.8953
vn -0.0584 -0.0148 0.9982
vn 0.2242 0.2627 0.9385
vn 0.0212 0.0102 0.9997
vn 0.1865 0.0082 0.9824
vn 0.2620 -0.2224 0.9391
vn 0.2076 -0.2693 0.9404
vn 0.0945 -0.4101 0.9071
vn -0.1135 -0.4473 0.8871
vn -0.4129 -0.4758 0.7766
vn -0.4185 -0.4179 0.8064
vn -0.0076 -0.0000 1.0000
vn -0.4185 0.4179 0.8064
vn 0.2976 0.1888 0.9358
vn 0.3799 0.0746 0.9220
vn 0.3217 0.1009 0.9414
vn 0.2366 0.1030 0.9661
vn 0.1457 0.0000 0.9893
vn 0.2365 -0.1030 0.9662
vn 0.3461 -0.0931 0.9336
vn 0.3643 -0.0106 0.9312
vn -0.8019 -0.0002 0.5975
vn -0.7622 0.0690 0.6436
vn -0.7479 0.0608 0.6610
vn -0.8215 -0.0002 0.5702
vn -0.7619 -0.0692 0.6439
vn -0.7475 -0.0609 0.6614
usemtl Sam_Body2_D
s 1
f 1/1/1 2/2/2 3/3/3
f 3/3/3 2/2/2 4/4/4
f 2/2/2 5/5/5 4/4/4
f 5/5/5 2/2/2 6/6/6
f 7/7/7 8/8/8 9/9/9
f 9/9/9 6/6/6 7/7/7
f 6/6/6 10/10/10 7/7/7
f 6/6/6 2/2/2 10/10/10
f 2/2/2 11/11/11 10/10/10
f 11/11/11 2/2/2 1/1/1
f 12/12/12 11/11/11 1/1/1
f 13/13/13 11/11/11 12/12/12
f 14/14/14 13/13/13 12/12/12
f 15/15/15 13/13/13 14/14/14
f 16/16/16 15/15/15 14/14/14
f 17/17/17 13/13/13 18/18/18
f 13/13/13 15/15/15 18/18/18
f 18/18/18 15/15/15 19/19/19
f 15/15/15 20/20/20 19/19/19
f 21/21/21 20/20/20 15/15/15
f 22/22/22 23/23/23 7/7/7
f 7/7/7 23/23/23 24/24/24
f 24/24/24 23/23/23 25/25/25
f 23/23/23 26/26/26 25/25/25
f 23/23/23 27/27/27 26/26/26
f 27/27/27 28/28/28 26/26/26
f 27/27/27 29/29/29 28/28/28
f 28/28/28 29/29/29 30/30/30
f 30/30/30 29/29/29 31/31/31
f 29/29/29 32/32/32 31/31/31
f 32/32/32 29/29/29 19/19/19
f 19/19/19 29/29/29 33/33/33
f 19/19/19 33/33/33 18/18/18
f 33/33/33 34/34/34 18/18/18
f 18/18/18 34/34/34 17/17/17
f 34/34/34 10/10/10 17/17/17
f 10/10/10 11/11/11 17/17/17
f 11/11/11 13/13/13 17/17/17
f 7/7/7 10/10/10 22/22/22
f 10/10/10 34/34/34 22/22/22
f 22/22/22 34/34/34 23/23/23
f 34/34/34 27/27/27 23/23/23
f 27/27/27 34/34/34 33/33/33
f 29/29/29 27/27/27 33/33/33
f 19/19/19 20/20/20 35/35/35
f 35/35/35 32/32/32 19/19/19
f 36/36/36 32/32/32 35/35/35
f 31/31/31 32/32/32 36/36/36
f 37/37/37 31/31/31 36/36/36
f 30/30/30 31/31/31 37/37/37
f 38/38/38 30/30/30 37/37/37
f 28/28/28 30/30/30 38/38/38
f 39/39/39 28/28/28 38/38/38
f 26/26/26 28/28/28 39/39/39
f 39/39/39 40/40/40 26/26/26
f 26/26/26 40/40/40 25/25/25
f 40/40/40 41/41/41 25/25/25
f 41/41/41 42/42/42 25/25/25
f 25/25/25 42/42/42 24/24/24
f 42/42/42 43/43/43 24/24/24
f 24/24/24 43/43/43 7/7/7
f 43/43/43 8/8/8 7/7/7
f 44/44/44 6/6/45 9/9/46
f 44/44/44 5/5/47 6/6/45
f 4/4/48 5/5/49 44/44/50
f 45/45/51 4/4/48 44/44/50
f 3/3/52 4/4/48 45/45/51
f 45/45/51 46/46/53 3/3/52
f 3/3/54 46/46/54 1/1/54
f 46/46/54 47/47/54 1/1/54
f 1/1/54 47/47/54 12/12/54
f 47/47/54 48/48/54 12/12/54
f 14/14/55 49/49/56 16/16/57
f 50/50/58 49/49/56 14/14/55
f 48/48/59 50/50/58 14/14/55
f 12/12/60 48/48/59 14/14/55
f 16/16/61 21/21/62 15/15/63
f 49/49/64 21/21/62 16/16/61
f 51/51/65 36/52/66 35/53/67
f 20/54/68 51/51/65 35/53/67
f 52/55/69 51/51/65 20/54/68
f 21/56/70 52/55/69 20/54/68
f 53/57/71 52/55/69 21/56/70
f 53/57/71 21/56/70 54/58/72
f 55/59/73 53/57/71 54/58/72
f 9/60/74 53/57/71 55/59/73
f 9/60/74 52/55/69 53/57/71
f 8/61/75 52/55/69 9/60/74
f 43/62/76 52/55/69 8/61/75
f 51/51/65 52/55/69 43/62/76
f 42/63/77 51/51/65 43/62/76
f 41/64/78 51/51/65 42/63/77
f 51/51/65 41/64/78 56/65/79
f 37/66/80 51/51/65 56/65/79
f 36/52/66 51/51/65 37/66/80
f 54/58/72 21/56/70 57/67/81
f 21/56/70 49/68/82 57/67/81
f 49/68/82 50/69/83 57/67/81
f 50/69/83 48/70/84 57/67/81
f 57/67/81 48/70/84 54/58/72
f 48/70/84 47/71/85 54/58/72
f 47/71/85 46/72/86 54/58/72
f 54/58/72 46/72/86 55/59/73
f 46/72/86 45/73/87 55/59/73
f 45/73/87 9/60/74 55/59/73
f 44/74/88 9/60/74 45/73/87
f 56/65/89 38/75/90 37/66/91
f 39/76/92 38/75/90 56/65/89
f 40/77/93 39/76/92 56/65/89
f 41/64/94 40/77/93 56/65/89
